<?xml version="1.0" standalone="no"?>
<!DOCTYPE svg PUBLIC "-//W3C//DTD SVG 20010904//EN"
 "http://www.w3.org/TR/2001/REC-SVG-20010904/DTD/svg10.dtd">
<svg version="1.0" xmlns="http://www.w3.org/2000/svg"
 width="1536.000000pt" height="1024.000000pt" viewBox="0 0 1536.000000 1024.000000"
 preserveAspectRatio="xMidYMid meet">

<g transform="translate(0.000000,1024.000000) scale(0.100000,-0.100000)"
fill="#000000" stroke="none">
<path d="M6250 6775 c-293 -35 -567 -158 -779 -349 -226 -203 -367 -443 -433
-736 -20 -92 -23 -130 -23 -315 1 -195 3 -219 29 -330 73 -311 209 -550 444
-776 194 -188 399 -305 657 -375 181 -49 250 -54 828 -54 295 0 537 3 537 6 0
14 -498 828 -509 832 -8 2 -118 -172 -155 -245 l-17 -33 -127 0 c-361 0 -598
83 -805 280 -185 175 -283 389 -294 640 -8 190 25 330 115 484 82 140 278 302
441 365 165 64 165 64 660 70 l455 6 64 110 c139 238 242 419 242 427 0 14
-1211 8 -1330 -7z"/>
<path d="M6479 5475 c-44 -71 -116 -186 -159 -255 -44 -69 -79 -128 -80 -132
0 -5 227 -8 504 -8 l504 0 105 -177 c57 -98 133 -227 168 -286 71 -121 66
-120 122 -22 18 33 156 273 305 533 150 260 272 474 272 475 0 1 -374 2 -830
2 l-830 0 -81 -130z"/>
<path d="M8725 5570 c-13 -19 -71 -118 -130 -220 -126 -216 -121 -208 -474
-808 -169 -287 -270 -469 -267 -479 8 -21 304 -533 321 -557 8 -11 17 -18 19
-15 6 6 741 1320 926 1654 117 211 225 403 236 420 8 11 14 24 14 30 0 7 -105
10 -312 10 l-311 0 -22 -35z"/>
</g>
</svg>
