<?xml version="1.0" standalone="no"?>
<!DOCTYPE svg PUBLIC "-//W3C//DTD SVG 20010904//EN"
 "http://www.w3.org/TR/2001/REC-SVG-20010904/DTD/svg10.dtd">
<svg version="1.0" xmlns="http://www.w3.org/2000/svg"
 width="964.000000pt" height="1104.000000pt" viewBox="0 0 964.000000 1104.000000"
 preserveAspectRatio="xMidYMid meet">

<g transform="translate(0.000000,1104.000000) scale(0.100000,-0.100000)"
fill="#000000" stroke="none">
<path d="M6340 10510 c0 -5 7 -10 15 -10 8 0 15 5 15 10 0 6 -7 10 -15 10 -8
0 -15 -4 -15 -10z"/>
<path d="M6930 10410 c0 -5 5 -10 10 -10 6 0 10 5 10 10 0 6 -4 10 -10 10 -5
0 -10 -4 -10 -10z"/>
<path d="M7157 10409 c7 -7 15 -10 18 -7 3 3 -2 9 -12 12 -14 6 -15 5 -6 -5z"/>
<path d="M7020 10360 c0 -5 5 -10 10 -10 6 0 10 5 10 10 0 6 -4 10 -10 10 -5
0 -10 -4 -10 -10z"/>
<path d="M7060 10310 c0 -5 5 -10 10 -10 6 0 10 5 10 10 0 6 -4 10 -10 10 -5
0 -10 -4 -10 -10z"/>
<path d="M2177 10122 c-16 -17 -23 -42 -12 -42 5 0 55 50 55 55 0 12 -29 3
-43 -13z"/>
<path d="M6220 10110 c0 -5 7 -10 15 -10 8 0 15 5 15 10 0 6 -7 10 -15 10 -8
0 -15 -4 -15 -10z"/>
<path d="M4147 9914 c-3 -3 -3 -12 -1 -19 4 -10 11 -10 30 -1 13 6 24 14 24
19 0 8 -44 10 -53 1z"/>
<path d="M4182 9853 c2 -9 9 -18 16 -21 18 -6 15 25 -4 32 -11 4 -14 1 -12
-11z"/>
<path d="M4765 9773 c11 -3 33 -17 50 -31 16 -15 22 -18 14 -7 -9 11 -14 27
-12 35 4 12 3 12 -5 1 -7 -9 -12 -10 -16 -2 -4 6 -17 10 -29 10 -20 -1 -20 -2
-2 -6z"/>
<path d="M4652 9719 c-19 -7 -21 -12 -12 -29 6 -11 8 -26 4 -33 -4 -6 3 -3 15
8 25 21 51 62 33 51 -6 -3 -12 -2 -14 3 -2 5 -13 5 -26 0z"/>
<path d="M4865 9680 c10 -11 20 -20 23 -20 3 0 -3 9 -13 20 -10 11 -20 20 -23
20 -3 0 3 -9 13 -20z"/>
<path d="M1436 9548 c-42 -76 -59 -121 -21 -58 37 62 66 120 61 120 -3 0 -21
-28 -40 -62z"/>
<path d="M4930 9596 c0 -2 8 -10 18 -17 15 -13 16 -12 3 4 -13 16 -21 21 -21
13z"/>
<path d="M1461 9552 c-15 -28 -14 -31 9 -25 22 6 24 11 11 32 -7 11 -11 10
-20 -7z"/>
<path d="M1515 9560 c-4 -6 -2 -17 4 -23 15 -15 25 -2 13 19 -7 12 -11 13 -17
4z"/>
<path d="M5130 9555 c0 -8 -5 -15 -11 -15 -13 0 -69 -58 -69 -72 0 -5 5 -6 10
-3 6 3 10 2 10 -3 0 -17 -13 -22 -29 -10 -14 11 -14 11 0 -7 9 -11 39 -58 68
-105 28 -46 51 -81 51 -76 0 4 -5 16 -10 27 -9 15 -7 19 5 19 9 0 13 5 10 10
-3 6 1 10 9 10 22 0 20 18 -1 23 -17 4 -17 4 0 12 13 5 22 2 33 -14 22 -31 34
-26 34 15 0 39 23 44 28 6 5 -35 24 -25 20 11 -2 24 -8 33 -25 35 -19 3 -23
10 -23 38 0 19 -4 34 -9 34 -5 0 -11 10 -13 23 -2 17 -11 23 -35 25 -21 2 -33
9 -33 18 0 8 -4 14 -10 14 -5 0 -10 -7 -10 -15z m68 -99 c4 -17 -1 -18 -37
-13 -45 6 -50 1 -24 -18 15 -11 15 -15 4 -29 -8 -9 -11 -29 -9 -47 l5 -31 -18
23 c-23 30 -65 110 -46 87 19 -24 25 -23 23 5 -3 36 13 48 58 45 31 -2 42 -8
44 -22z"/>
<path d="M4554 9548 c-4 -7 -14 -23 -22 -35 -8 -13 -12 -23 -9 -23 9 0 50 61
44 66 -3 3 -8 -1 -13 -8z"/>
<path d="M4991 9518 c18 -27 34 -48 36 -48 7 0 -16 35 -42 65 -20 23 -19 18 6
-17z"/>
<path d="M4816 9445 c4 -8 11 -15 16 -15 6 0 5 6 -2 15 -7 8 -14 15 -16 15 -2
0 -1 -7 2 -15z"/>
<path d="M1376 9423 c-6 -14 -5 -15 5 -6 7 7 10 15 7 18 -3 3 -9 -2 -12 -12z"/>
<path d="M4856 9395 c10 -15 12 -25 5 -25 -6 0 -11 -11 -11 -25 0 -26 21 -33
48 -17 9 6 5 19 -18 50 -32 45 -51 58 -24 17z"/>
<path d="M4658 9378 c-13 -18 -32 -46 -42 -63 l-19 -30 20 18 c19 16 22 16 36
2 9 -8 22 -15 30 -15 8 0 20 -7 27 -15 11 -14 15 -12 31 15 10 16 22 30 26 30
5 0 21 -20 36 -45 29 -45 47 -62 27 -25 -7 14 -7 20 0 20 15 0 12 26 -5 44
-10 10 -28 14 -48 12 -26 -3 -38 2 -64 31 -18 19 -30 39 -27 44 14 23 -6 6
-28 -23z"/>
<path d="M1356 9385 c-9 -26 -7 -32 5 -12 6 10 9 21 6 23 -2 3 -7 -2 -11 -11z"/>
<path d="M1306 9254 c-9 -26 -14 -49 -12 -51 2 -2 11 17 20 43 9 26 14 49 12
51 -2 2 -11 -17 -20 -43z"/>
<path d="M4365 9249 c-9 -17 -15 -33 -13 -35 3 -2 12 12 21 31 21 43 13 47 -8
4z"/>
<path d="M4565 9239 c-29 -45 -46 -88 -24 -58 11 15 13 15 29 0 9 -9 30 -28
47 -42 l30 -27 22 46 c18 36 20 47 9 53 -7 5 -16 9 -20 9 -4 0 -10 9 -13 21
-5 16 -13 20 -32 16 -17 -3 -23 -1 -19 9 10 27 -4 14 -29 -27z"/>
<path d="M4945 9240 c-8 -38 0 -49 21 -28 15 15 15 18 1 38 -15 22 -15 22 -22
-10z"/>
<path d="M4848 9205 c6 -11 22 -42 36 -68 23 -44 25 -46 24 -20 0 15 3 38 7
50 5 17 3 25 -11 30 -11 4 -19 2 -22 -7 -3 -9 -10 -6 -24 11 -14 18 -17 19
-10 4z"/>
<path d="M1262 9118 c-23 -85 -37 -145 -29 -138 7 7 58 202 54 207 -2 2 -13
-29 -25 -69z"/>
<path d="M5190 9187 c0 -24 23 -55 43 -59 25 -5 27 1 12 34 -4 10 -11 15 -16
12 -6 -3 -16 0 -24 6 -8 7 -15 10 -15 7z"/>
<path d="M4270 9125 c-14 -8 -34 -12 -44 -8 -15 4 -18 1 -13 -11 4 -9 1 -16
-5 -16 -6 0 -9 -2 -6 -5 2 -3 29 8 59 25 30 16 50 30 44 29 -5 0 -21 -6 -35
-14z"/>
<path d="M5006 9095 c-15 -31 -15 -37 -2 -50 15 -15 56 -21 56 -7 0 18 -22 82
-29 87 -5 2 -16 -11 -25 -30z"/>
<path d="M4492 9093 c-6 -16 -14 -40 -18 -56 -6 -25 -5 -27 17 -18 25 8 40 51
19 51 -8 0 -10 9 -6 25 8 33 1 32 -12 -2z"/>
<path d="M5375 9042 c21 -23 41 -42 44 -42 2 0 1 3 -2 7 -4 3 -2 12 3 18 17
21 1 44 -28 40 -15 -1 -34 2 -42 8 -8 6 3 -8 25 -31z"/>
<path d="M4921 8973 c0 -35 2 -63 7 -63 4 0 6 21 4 48 -5 75 -10 82 -11 15z"/>
<path d="M4612 9003 c-1 -7 -9 -10 -17 -7 -8 4 -15 2 -15 -4 0 -5 7 -15 15
-22 24 -20 18 -40 -12 -41 -25 -1 -25 -2 7 -9 19 -5 35 -8 35 -7 1 10 -12 99
-13 90z"/>
<path d="M4363 8970 c-24 -10 -43 -22 -43 -25 0 -3 4 -4 9 0 6 3 15 -3 20 -14
6 -10 22 -22 36 -25 14 -4 23 -11 20 -16 -9 -15 6 -11 45 10 39 21 36 26 -6
10 -24 -9 -25 -9 -14 5 10 12 10 15 -4 15 -9 0 -16 7 -16 15 0 8 -5 15 -11 15
-8 0 -8 5 1 15 16 19 14 19 -37 -5z"/>
<path d="M5110 8972 c0 -21 -30 -52 -50 -52 -7 0 9 -11 36 -25 55 -28 57 -29
50 -16 -5 7 3 20 44 68 7 9 2 16 -19 28 -40 20 -61 19 -61 -3z"/>
<path d="M5453 8929 c18 -37 35 -62 38 -57 4 6 12 7 19 3 13 -8 9 12 -12 68
-10 26 -38 38 -38 16 0 -6 -9 -1 -19 12 -12 15 -8 -1 12 -42z"/>
<path d="M5510 8975 c0 -8 5 -15 10 -15 6 0 10 7 10 15 0 8 -4 15 -10 15 -5 0
-10 -7 -10 -15z"/>
<path d="M4090 8969 c0 -5 5 -7 10 -4 6 3 10 8 10 11 0 2 -4 4 -10 4 -5 0 -10
-5 -10 -11z"/>
<path d="M1222 8940 c0 -14 2 -19 5 -12 2 6 2 18 0 25 -3 6 -5 1 -5 -13z"/>
<path d="M5510 8941 c0 -11 29 -35 35 -29 10 9 -7 38 -21 38 -8 0 -14 -4 -14
-9z"/>
<path d="M4968 8923 c12 -2 32 -2 45 0 12 2 2 4 -23 4 -25 0 -35 -2 -22 -4z"/>
<path d="M1205 8850 c-4 -34 -5 -63 -2 -66 2 -3 7 23 11 57 4 33 5 63 3 66 -3
2 -8 -23 -12 -57z"/>
<path d="M4244 8865 c-27 -41 -45 -145 -25 -145 5 0 7 8 5 18 -3 9 -1 28 5 42
l10 25 0 -27 c2 -58 61 -17 61 42 0 10 -9 26 -21 34 -12 8 -18 19 -14 25 13
23 -5 10 -21 -14z"/>
<path d="M5262 8857 c-13 -15 2 -38 36 -56 26 -14 27 -10 6 35 -18 37 -26 41
-42 21z"/>
<path d="M5492 8820 c0 -14 2 -19 5 -12 2 6 2 18 0 25 -3 6 -5 1 -5 -13z"/>
<path d="M5189 8801 c10 -17 9 -22 -3 -27 -14 -5 -14 -8 0 -21 9 -10 19 -12
24 -7 13 13 17 58 5 59 -5 0 -16 4 -23 9 -11 7 -12 4 -3 -13z"/>
<path d="M5499 8770 c0 -8 -2 -23 -4 -33 -4 -20 1 -22 55 -31 22 -4 30 -3 21
3 -7 5 -11 13 -7 19 7 11 -9 25 -33 29 -8 1 -18 8 -22 15 -7 10 -9 10 -10 -2z"/>
<path d="M1193 8705 c0 -38 2 -53 4 -32 2 20 2 52 0 70 -2 17 -4 1 -4 -38z"/>
<path d="M3917 8743 c-12 -3 -17 -12 -15 -28 2 -15 -6 -30 -22 -44 l-25 -21
38 21 c20 12 63 29 95 39 31 10 47 19 35 19 -12 1 -30 4 -40 7 -15 5 -15 4 -3
-5 13 -9 13 -11 -1 -11 -9 0 -19 7 -23 15 -6 15 -8 16 -39 8z"/>
<path d="M4452 8715 c-2 -28 13 -32 41 -10 18 13 18 14 -2 24 -29 16 -36 14
-39 -14z"/>
<path d="M4362 8661 c24 -15 48 -30 55 -34 7 -5 6 4 -3 23 -9 16 -19 30 -22
31 -4 0 -22 2 -40 3 l-32 4 42 -27z"/>
<path d="M4960 8677 c-8 -7 -24 -24 -35 -37 -11 -14 -13 -19 -5 -13 11 11 20
4 48 -35 19 -26 37 -56 41 -66 7 -17 11 -15 35 20 l27 39 -25 9 c-15 6 -26 20
-30 37 -3 16 -14 30 -26 34 -11 4 -18 11 -15 16 8 12 3 11 -15 -4z"/>
<path d="M5124 8663 c4 -8 1 -23 -6 -31 -7 -9 2 -6 20 7 36 25 36 29 2 36 -17
3 -20 1 -16 -12z"/>
<path d="M4594 8643 c3 -6 1 -13 -6 -15 -7 -3 -4 -12 11 -27 17 -17 26 -20 34
-12 8 8 4 19 -17 39 -16 15 -26 22 -22 15z"/>
<path d="M5690 8628 c0 -4 4 -8 8 -8 4 0 23 -19 41 -42 19 -24 31 -35 28 -26
-3 9 -1 19 6 22 7 3 0 16 -21 34 -31 28 -62 38 -62 20z"/>
<path d="M3809 8613 c-13 -16 -12 -17 4 -4 9 7 17 15 17 17 0 8 -8 3 -21 -13z"/>
<path d="M1182 8560 c0 -19 2 -27 5 -17 2 9 2 25 0 35 -3 9 -5 1 -5 -18z"/>
<path d="M4871 8549 c-6 -18 -10 -46 -10 -63 l1 -31 8 30 7 30 5 -30 c2 -16 4
-2 4 32 -1 35 -2 63 -3 63 0 0 -6 -14 -12 -31z"/>
<path d="M4505 8525 c35 -61 40 -66 32 -37 -3 12 -1 22 5 22 5 0 8 8 6 18 -2
9 -11 17 -19 17 -9 0 -24 7 -34 15 -13 11 -10 0 10 -35z"/>
<path d="M4095 8550 c-3 -5 0 -10 7 -10 9 0 9 -3 -2 -10 -12 -8 -10 -10 8 -10
21 0 52 20 52 34 0 10 -59 6 -65 -4z"/>
<path d="M5295 8535 c-23 -10 -25 -13 -10 -14 11 0 31 6 45 14 32 18 5 19 -35
0z"/>
<path d="M5490 8525 c0 -20 37 -39 43 -22 3 9 7 9 20 -2 10 -7 17 -11 17 -7 0
7 -61 46 -72 46 -5 0 -8 -7 -8 -15z"/>
<path d="M3725 8520 c9 -14 -4 -52 -15 -45 -5 3 -12 -6 -16 -20 -3 -14 -11
-25 -18 -25 -6 0 -3 -7 7 -14 18 -14 18 -15 0 -25 -10 -6 -13 -10 -8 -11 21 0
33 17 49 70 10 30 20 61 22 68 3 7 -1 12 -11 12 -9 0 -13 -5 -10 -10z"/>
<path d="M4260 8495 l0 -36 24 18 c26 20 25 27 -5 43 -17 10 -19 7 -19 -25z"/>
<path d="M8285 7585 c0 -506 1 -714 2 -463 2 251 2 665 0 920 -1 255 -2 49 -2
-457z"/>
<path d="M4031 8471 c-7 -5 -11 -22 -9 -39 l3 -31 39 36 c21 19 32 33 25 31
-8 -3 -21 -2 -30 3 -8 4 -21 4 -28 0z"/>
<path d="M5363 8470 c-33 -14 -29 -16 25 -11 36 3 42 6 27 12 -25 10 -25 10
-52 -1z"/>
<path d="M5806 8445 c8 -47 20 -65 43 -65 14 1 14 2 -1 11 -22 12 -23 29 -3
29 8 0 15 9 15 20 0 13 -7 20 -18 20 -10 0 -24 6 -31 13 -10 10 -11 4 -5 -28z"/>
<path d="M5174 8435 c-7 -19 -13 -54 -13 -77 2 -40 2 -39 9 15 8 58 20 89 20
49 0 -12 5 -22 10 -22 6 0 10 9 10 20 0 11 -5 20 -11 20 -6 0 -9 7 -5 15 12
31 -6 13 -20 -20z"/>
<path d="M4541 8444 c0 -11 3 -14 6 -6 3 7 2 16 -1 19 -3 4 -6 -2 -5 -13z"/>
<path d="M4676 8453 c-3 -4 -3 -47 0 -97 6 -81 6 -89 -9 -83 -11 4 -17 1 -17
-8 0 -8 -4 -15 -10 -15 -12 0 -13 -50 -1 -69 5 -7 13 -11 19 -7 6 3 15 -2 21
-11 7 -13 10 26 11 140 0 86 -1 157 -3 157 -2 0 -7 -3 -11 -7z"/>
<path d="M4900 8444 c0 -9 5 -14 12 -12 18 6 21 28 4 28 -9 0 -16 -7 -16 -16z"/>
<path d="M4212 8418 c9 -25 8 -37 -7 -64 -9 -18 -15 -38 -12 -46 4 -9 6 -8 6
4 1 9 12 34 26 55 30 43 29 75 -2 79 -20 3 -21 2 -11 -28z"/>
<path d="M1180 8065 c0 -203 2 -366 5 -363 7 7 8 719 1 726 -3 3 -6 -160 -6
-363z"/>
<path d="M4551 8385 c-1 -22 -6 -60 -11 -85 -7 -37 -6 -42 5 -27 12 16 14 16
36 -8 13 -13 27 -25 30 -25 10 0 3 101 -8 108 -5 4 -12 15 -16 25 -4 10 -11
16 -16 12 -5 -3 -12 5 -14 17 -3 14 -5 7 -6 -17z"/>
<path d="M4976 8403 c-6 -14 -5 -15 5 -6 7 7 10 15 7 18 -3 3 -9 -2 -12 -12z"/>
<path d="M3887 8365 c-4 -22 -7 -56 -7 -76 0 -27 -5 -38 -18 -41 -19 -5 -30
-68 -12 -68 5 0 10 -7 10 -15 0 -8 5 -15 10 -15 6 0 10 9 10 20 0 11 5 20 10
20 6 0 10 12 10 27 0 14 7 35 16 45 13 14 14 21 5 32 -7 8 -16 36 -20 63 l-7
48 -7 -40z"/>
<path d="M5504 8383 c4 -10 10 -31 13 -47 l6 -28 14 32 c7 18 12 33 11 34 -2
1 -14 7 -27 14 -22 13 -23 12 -17 -5z"/>
<path d="M5632 8380 c0 -14 2 -19 5 -12 2 6 2 18 0 25 -3 6 -5 1 -5 -13z"/>
<path d="M4366 8354 c-4 -14 -5 -29 -2 -31 3 -3 8 7 12 21 3 15 4 29 1 32 -2
3 -8 -7 -11 -22z"/>
<path d="M4859 8373 c-3 -18 3 -148 7 -152 2 -2 4 32 4 77 0 45 -2 82 -5 82
-3 0 -6 -3 -6 -7z"/>
<path d="M5297 8366 c-3 -8 1 -22 8 -33 8 -10 15 -13 15 -8 1 6 5 1 10 -10 8
-18 9 -18 9 -2 1 27 -35 72 -42 53z"/>
<path d="M3529 8320 c-19 -10 -42 -26 -50 -36 -10 -12 72 31 100 53 14 10 -19
-1 -50 -17z"/>
<path d="M5978 8331 c-14 -5 -6 -13 33 -35 l51 -29 -22 31 c-26 36 -38 42 -62
33z"/>
<path d="M5504 8248 c-6 -19 -7 -41 -2 -51 4 -9 12 -25 17 -34 11 -23 44 -28
60 -9 10 11 19 13 38 5 14 -5 27 -8 29 -6 2 2 8 25 13 50 6 37 5 47 -5 47 -7
0 -16 -4 -19 -10 -3 -5 -28 -10 -55 -10 -43 0 -49 3 -57 26 l-9 27 -10 -35z"/>
<path d="M6120 8226 c0 -2 8 -10 18 -17 15 -13 16 -12 3 4 -13 16 -21 21 -21
13z"/>
<path d="M4026 8212 c-8 -13 10 -62 23 -62 5 0 12 8 15 17 8 19 -28 61 -38 45z"/>
<path d="M5758 8213 c6 -2 10 -9 7 -14 -4 -5 1 -6 10 -2 13 5 14 7 3 14 -7 5
-17 8 -23 8 -5 0 -4 -3 3 -6z"/>
<path d="M3678 8180 c-27 -15 -35 -24 -31 -39 7 -27 41 -33 69 -13 24 17 33
52 13 52 -5 0 -7 5 -4 10 9 15 -5 12 -47 -10z"/>
<path d="M6180 8175 c13 -14 26 -25 28 -25 3 0 -5 11 -18 25 -13 14 -26 25
-28 25 -3 0 5 -11 18 -25z"/>
<path d="M5904 8123 c1 -16 7 -28 14 -27 62 5 60 3 27 29 -38 31 -42 31 -41
-2z"/>
<path d="M5117 8129 c7 -7 15 -10 18 -7 3 3 -2 9 -12 12 -14 6 -15 5 -6 -5z"/>
<path d="M6257 8105 c10 -13 22 -25 27 -25 5 0 -1 11 -14 25 -30 32 -36 32
-13 0z"/>
<path d="M5345 8110 c-13 -6 -15 -9 -5 -9 8 0 22 4 30 9 18 12 2 12 -25 0z"/>
<path d="M4300 8100 c-19 -4 -29 -8 -22 -9 21 -2 13 -29 -10 -34 -13 -2 49 -4
137 -4 139 1 147 1 60 6 -106 6 -128 13 -118 36 6 16 6 16 -47 5z"/>
<path d="M3234 8078 l-19 -23 23 19 c21 18 27 26 19 26 -2 0 -12 -10 -23 -22z"/>
<path d="M4857 8077 c-4 -10 -7 -21 -7 -23 0 -2 73 -4 162 -4 89 0 159 2 157
5 -3 2 -71 5 -151 6 -128 1 -147 3 -150 17 -3 15 -4 15 -11 -1z"/>
<path d="M3880 8059 c-54 -3 -6 -6 130 -6 118 -1 211 0 205 2 -20 7 -252 10
-335 4z"/>
<path d="M5224 8059 c-16 -4 82 -7 217 -8 136 0 262 -4 280 -7 29 -4 31 -4 15
6 -20 13 -458 20 -512 9z"/>
<path d="M3507 8040 c-6 -23 34 -60 64 -60 10 0 22 -6 26 -14 7 -12 17 -9 55
16 26 17 45 35 42 39 -2 5 -34 8 -71 7 -51 -1 -68 3 -75 16 -12 22 -35 20 -41
-4z"/>
<path d="M6300 8057 c0 -2 15 -16 33 -33 l32 -29 -29 33 c-28 30 -36 37 -36
29z"/>
<path d="M6065 8018 c1 -13 3 -27 4 -33 1 -12 51 -36 51 -25 0 5 -5 12 -10 15
-6 4 -8 10 -5 14 2 5 -6 18 -19 30 l-23 22 2 -23z"/>
<path d="M7933 8015 c-19 -21 -16 -27 10 -23 12 2 22 9 22 17 0 20 -18 23 -32
6z"/>
<path d="M5890 7969 c60 -47 92 -89 124 -159 21 -47 27 -85 41 -265 20 -260
52 -643 65 -790 6 -60 24 -263 41 -450 17 -187 33 -342 36 -345 7 -6 -1 96
-27 355 -11 112 -21 336 -14 312 5 -15 8 -16 22 -5 12 10 14 10 8 1 -4 -8 -1
-13 8 -13 10 0 16 9 16 25 0 14 -4 25 -10 25 -5 0 -10 -4 -10 -10 0 -5 -4 -10
-9 -10 -16 0 -20 54 -5 77 18 29 18 33 -4 33 -15 0 -19 -9 -21 -47 -1 -26 -5
-50 -8 -53 -3 -3 -3 23 -1 57 2 34 1 60 -3 57 -9 -5 -24 164 -24 278 0 47 -3
84 -6 82 -4 -2 -9 33 -13 79 -32 399 -46 537 -58 575 -7 24 -7 37 0 44 15 15
-14 72 -32 65 -16 -6 -91 69 -100 99 -4 15 -15 21 -35 21 -28 0 -28 -1 19 -38z"/>
<path d="M7800 8000 c0 -5 5 -10 10 -10 6 0 10 5 10 10 0 6 -4 10 -10 10 -5 0
-10 -4 -10 -10z"/>
<path d="M6395 7945 c20 -27 40 -50 45 -50 5 0 12 -4 17 -9 5 -5 3 -6 -4 -2
-19 11 -16 1 18 -54 34 -55 48 -67 24 -20 -9 17 -13 35 -10 40 7 12 -24 80
-36 80 -5 0 -9 -6 -9 -12 0 -7 -18 7 -41 32 l-40 45 36 -50z"/>
<path d="M7876 7948 c-15 -20 -16 -21 -34 -5 -23 21 -32 21 -32 2 0 -8 5 -15
10 -15 6 0 10 -16 10 -35 0 -24 5 -35 15 -35 8 0 15 8 15 18 0 17 38 62 53 62
4 0 7 -7 7 -15 0 -8 -4 -15 -10 -15 -20 0 -9 -16 21 -29 34 -15 48 -9 29 14
-7 9 -10 25 -6 41 6 23 4 26 -13 21 -12 -3 -21 -1 -21 4 0 17 -29 9 -44 -13z"/>
<path d="M3113 7938 c-6 -7 -16 -24 -22 -38 -12 -24 -12 -24 4 -5 20 24 37 55
32 55 -3 0 -9 -6 -14 -12z"/>
<path d="M3329 7903 l-34 -38 38 34 c20 19 37 36 37 38 0 8 -8 0 -41 -34z"/>
<path d="M7970 7920 c0 -5 7 -10 15 -10 8 0 15 5 15 10 0 6 -7 10 -15 10 -8 0
-15 -4 -15 -10z"/>
<path d="M3487 7840 c-20 -24 -21 -34 -6 -62 11 -21 12 -20 24 9 24 57 27 73
13 73 -8 0 -21 -9 -31 -20z"/>
<path d="M3802 7851 c-11 -6 -11 -10 0 -18 28 -22 36 -21 68 2 l34 25 -45 0
c-24 0 -50 -4 -57 -9z"/>
<path d="M5721 7834 c27 -29 74 -56 82 -48 3 3 4 -1 4 -10 -1 -8 2 -14 6 -13
5 1 15 -9 22 -23 19 -34 19 -16 0 21 -9 16 -27 34 -41 39 -14 6 -23 14 -20 19
3 5 -9 16 -28 25 -47 22 -53 20 -25 -10z"/>
<path d="M7880 7850 c0 -5 7 -10 15 -10 8 0 15 5 15 10 0 6 -7 10 -15 10 -8 0
-15 -4 -15 -10z"/>
<path d="M3016 7784 c-10 -14 -16 -30 -14 -35 2 -6 11 6 21 25 20 42 16 47 -7
10z"/>
<path d="M3244 7798 c-4 -7 -14 -24 -22 -38 -14 -24 -13 -24 3 -5 20 24 37 55
31 55 -3 0 -8 -6 -12 -12z"/>
<path d="M3860 7800 c0 -5 5 -10 10 -10 6 0 10 5 10 10 0 6 -4 10 -10 10 -5 0
-10 -4 -10 -10z"/>
<path d="M4430 7770 c0 -5 5 -10 10 -10 6 0 10 5 10 10 0 6 -4 10 -10 10 -5 0
-10 -4 -10 -10z"/>
<path d="M5540 7770 c19 -13 30 -13 30 0 0 6 -10 10 -22 10 -19 0 -20 -2 -8
-10z"/>
<path d="M6070 7760 c12 -22 30 -18 30 6 0 8 -9 14 -20 14 -18 0 -19 -3 -10
-20z"/>
<path d="M3681 7743 c-7 -15 -14 -53 -16 -83 -1 -30 -1 -43 2 -27 5 29 14 33
44 17 17 -9 19 -7 19 17 0 22 2 25 10 13 8 -11 9 -7 4 15 -3 17 -16 40 -28 53
l-22 23 -13 -28z"/>
<path d="M5010 7760 c0 -5 5 -10 10 -10 6 0 10 5 10 10 0 6 -4 10 -10 10 -5 0
-10 -4 -10 -10z"/>
<path d="M6542 7705 c18 -35 34 -63 36 -61 4 5 -56 126 -63 126 -3 0 10 -29
27 -65z"/>
<path d="M5505 7740 c-3 -5 1 -10 9 -10 9 0 16 5 16 10 0 6 -4 10 -9 10 -6 0
-13 -4 -16 -10z"/>
<path d="M1184 7375 c0 -170 2 -242 3 -158 2 83 2 223 0 310 -1 87 -3 19 -3
-152z"/>
<path d="M4065 7660 c-14 -7 -8 -8 20 -3 22 3 42 7 44 9 9 8 -45 2 -64 -6z"/>
<path d="M3155 7649 c-4 -6 -5 -12 -2 -15 2 -3 7 2 10 11 7 17 1 20 -8 4z"/>
<path d="M4260 7640 c8 -5 20 -10 25 -10 6 0 3 5 -5 10 -8 5 -19 10 -25 10 -5
0 -3 -5 5 -10z"/>
<path d="M2925 7605 c-9 -20 -14 -39 -11 -42 3 -3 12 12 21 32 8 21 13 40 10
43 -2 3 -12 -12 -20 -33z"/>
<path d="M3135 7609 c-4 -6 -5 -12 -2 -15 2 -3 7 2 10 11 7 17 1 20 -8 4z"/>
<path d="M5680 7606 c0 -9 7 -16 16 -16 9 0 14 5 12 12 -6 18 -28 21 -28 4z"/>
<path d="M6596 7595 c4 -11 24 -67 45 -125 21 -58 38 -98 38 -90 1 21 -52 169
-73 205 -10 17 -14 21 -10 10z"/>
<path d="M4379 7551 c15 -20 33 -45 39 -56 l11 -20 1 20 c1 11 3 30 6 41 4 27
-11 40 -53 46 l-32 4 28 -35z"/>
<path d="M3879 7571 c-2 -8 -4 -81 -3 -81 1 0 13 18 27 39 l26 39 -25 5 c-13
2 -25 1 -25 -2z"/>
<path d="M3647 7452 c-5 -63 -6 -116 -3 -119 3 -4 6 17 6 47 0 44 2 51 14 41
9 -7 17 -8 20 -3 8 14 -5 73 -15 67 -4 -3 -9 14 -11 37 -2 24 -7 -6 -11 -70z"/>
<path d="M5770 7537 c1 -19 27 -49 34 -39 3 6 3 17 0 25 -7 19 -34 30 -34 14z"/>
<path d="M3065 7445 c-9 -26 -15 -48 -12 -51 3 -3 12 16 21 42 21 62 14 68 -9
9z"/>
<path d="M4680 7480 c0 -5 6 -10 14 -10 8 0 18 5 21 10 3 6 -3 10 -14 10 -12
0 -21 -4 -21 -10z"/>
<path d="M4250 7455 c-8 -9 -8 -15 -2 -15 12 0 26 19 19 26 -2 2 -10 -2 -17
-11z"/>
<path d="M4294 7435 c-10 -32 -10 -35 3 -22 8 8 13 24 11 37 -2 17 -5 15 -14
-15z"/>
<path d="M4668 7453 c12 -2 32 -2 45 0 12 2 2 4 -23 4 -25 0 -35 -2 -22 -4z"/>
<path d="M4958 7453 c6 -2 18 -2 25 0 6 3 1 5 -13 5 -14 0 -19 -2 -12 -5z"/>
<path d="M5108 7453 c6 -2 18 -2 25 0 6 3 1 5 -13 5 -14 0 -19 -2 -12 -5z"/>
<path d="M5473 7453 c20 -2 54 -2 75 0 20 2 3 4 -38 4 -41 0 -58 -2 -37 -4z"/>
<path d="M2852 7421 c-6 -17 -7 -33 -2 -36 9 -5 25 53 17 61 -3 3 -9 -9 -15
-25z"/>
<path d="M7811 7411 c-12 -8 -11 -12 3 -27 16 -16 18 -16 34 0 15 15 15 18 2
26 -18 12 -21 12 -39 1z"/>
<path d="M4581 7399 c-1 -9 7 -27 17 -39 l18 -23 -4 38 c-3 22 -7 32 -12 25
-6 -9 -9 -9 -13 1 -4 10 -6 10 -6 -2z"/>
<path d="M4448 7342 c-3 -36 -17 -86 -32 -115 l-25 -52 25 30 c13 17 24 24 24
18 0 -7 6 -13 14 -13 18 0 30 35 19 52 -4 7 -10 42 -13 78 l-5 65 -7 -63z"/>
<path d="M6476 7375 c4 -16 11 -37 15 -45 6 -10 7 -4 3 15 -4 17 -11 37 -15
45 -6 10 -7 4 -3 -15z"/>
<path d="M5654 7368 c-9 -32 -34 -58 -55 -58 -15 0 -16 -3 -6 -25 10 -21 17
-24 42 -19 36 8 47 22 39 49 -4 11 -6 32 -6 48 1 33 -4 35 -14 5z"/>
<path d="M2183 7365 c-3 -9 -3 -19 1 -22 7 -7 36 16 36 28 0 15 -30 10 -37 -6z"/>
<path d="M2330 7372 c0 -10 22 -32 32 -32 4 0 8 9 8 20 0 13 -7 20 -20 20 -11
0 -20 -4 -20 -8z"/>
<path d="M3022 7308 c-40 -140 -54 -247 -57 -438 l-3 -185 8 180 c8 183 24
301 61 434 11 40 18 75 16 77 -2 2 -13 -28 -25 -68z"/>
<path d="M4146 7343 c-27 -25 -39 -45 -40 -64 -1 -30 -5 -34 -22 -21 -5 4 -1
-1 9 -10 29 -27 31 -26 92 42 22 25 36 41 31 37 -12 -9 -39 30 -31 43 11 17 1
11 -39 -27z"/>
<path d="M2284 7346 c-7 -17 -34 -22 -34 -6 0 6 -4 10 -9 10 -4 0 -9 -29 -9
-65 0 -36 2 -65 5 -65 14 0 33 33 33 59 0 33 17 51 26 27 11 -28 25 -17 22 16
-3 34 -24 49 -34 24z"/>
<path d="M4632 7314 c8 -9 23 -14 33 -12 12 2 7 7 -16 15 -30 12 -32 11 -17
-3z"/>
<path d="M6691 7325 c0 -5 8 -55 19 -109 47 -234 48 -505 1 -731 -35 -166 -33
-154 -21 -123 6 14 22 75 36 135 13 59 22 87 19 62 -4 -47 -4 -47 20 -35 29
13 40 35 25 50 -5 5 -10 18 -10 28 0 10 -7 18 -16 18 -14 0 -15 14 -9 118 7
118 15 161 15 84 0 -31 4 -42 15 -42 8 0 15 7 15 16 0 8 -4 12 -10 9 -5 -3
-10 3 -10 15 0 12 4 19 9 16 12 -8 41 3 41 15 0 5 -6 9 -14 9 -22 0 -25 23 -7
43 15 18 14 20 -6 37 -12 10 -19 21 -15 24 3 4 7 31 7 61 1 46 -1 53 -17 52
-17 -1 -19 -8 -15 -59 2 -31 0 -55 -5 -52 -4 3 -8 24 -8 48 0 62 -56 355 -59
311z"/>
<path d="M3633 7265 c0 -27 2 -38 4 -22 2 15 2 37 0 50 -2 12 -4 0 -4 -28z"/>
<path d="M2180 7290 c0 -5 5 -10 10 -10 6 0 10 5 10 10 0 6 -4 10 -10 10 -5 0
-10 -4 -10 -10z"/>
<path d="M2342 7288 c-19 -19 -14 -28 18 -28 17 0 30 4 30 8 0 9 -21 32 -30
32 -3 0 -11 -5 -18 -12z"/>
<path d="M3442 7270 c0 -14 2 -19 5 -12 2 6 2 18 0 25 -3 6 -5 1 -5 -13z"/>
<path d="M5460 7266 c0 -8 -9 -18 -20 -21 -11 -3 -20 -13 -20 -21 0 -19 16
-18 24 1 3 9 19 15 41 15 l35 0 -20 20 c-23 23 -40 26 -40 6z"/>
<path d="M2180 7260 c0 -13 28 -25 38 -16 3 4 0 11 -8 16 -20 13 -30 12 -30 0z"/>
<path d="M2400 7230 c0 -13 7 -20 20 -20 23 0 26 10 8 28 -18 18 -28 15 -28
-8z"/>
<path d="M2350 7230 c0 -5 5 -10 10 -10 6 0 10 5 10 10 0 6 -4 10 -10 10 -5 0
-10 -4 -10 -10z"/>
<path d="M2270 7215 c-7 -9 -10 -18 -7 -21 10 -11 37 5 37 21 0 19 -14 19 -30
0z"/>
<path d="M3020 7208 c0 -13 5 -30 10 -38 7 -11 10 -5 10 23 0 20 -4 37 -10 37
-5 0 -10 -10 -10 -22z"/>
<path d="M6110 7209 c0 -11 5 -19 12 -17 17 6 19 38 2 38 -8 0 -14 -9 -14 -21z"/>
<path d="M6750 7220 c0 -5 5 -10 10 -10 6 0 10 5 10 10 0 6 -4 10 -10 10 -5 0
-10 -4 -10 -10z"/>
<path d="M2190 7200 c0 -5 7 -10 15 -10 8 0 15 5 15 10 0 6 -7 10 -15 10 -8 0
-15 -4 -15 -10z"/>
<path d="M3432 7158 c-1 -25 -5 -55 -8 -65 -5 -14 -4 -15 5 -7 8 7 11 31 8 65
l-3 54 -2 -47z"/>
<path d="M3623 7140 c0 -30 2 -43 4 -27 2 15 2 39 0 55 -2 15 -4 2 -4 -28z"/>
<path d="M2774 7026 c-1 -132 0 -140 6 -61 4 50 11 115 15 146 6 43 4 57 -6
61 -12 4 -14 -22 -15 -146z"/>
<path d="M4500 7160 c0 -11 7 -20 15 -20 8 0 15 9 15 20 0 11 -7 20 -15 20 -8
0 -15 -9 -15 -20z"/>
<path d="M2380 7150 c0 -5 5 -10 10 -10 6 0 10 5 10 10 0 6 -4 10 -10 10 -5 0
-10 -4 -10 -10z"/>
<path d="M2410 7150 c0 -5 5 -10 10 -10 6 0 10 5 10 10 0 6 -4 10 -10 10 -5 0
-10 -4 -10 -10z"/>
<path d="M4430 7149 c0 -5 5 -7 10 -4 6 3 10 8 10 11 0 2 -4 4 -10 4 -5 0 -10
-5 -10 -11z"/>
<path d="M4616 7114 c-9 -23 -8 -24 20 -24 20 0 25 4 20 16 -3 9 -6 18 -6 20
0 12 -29 2 -34 -12z"/>
<path d="M4285 7093 c-23 -13 -33 -23 -22 -23 9 0 17 -4 17 -10 0 -15 50 -12
56 3 2 7 1 22 -3 33 -8 20 -9 20 -48 -3z"/>
<path d="M3613 7030 c0 -30 2 -43 4 -27 2 15 2 39 0 55 -2 15 -4 2 -4 -28z"/>
<path d="M1182 6421 c-1 -354 0 -642 2 -640 8 7 12 856 6 1074 -4 135 -7 -22
-8 -434z"/>
<path d="M4103 7053 c9 -2 25 -2 35 0 9 3 1 5 -18 5 -19 0 -27 -2 -17 -5z"/>
<path d="M6122 7030 c0 -14 2 -19 5 -12 2 6 2 18 0 25 -3 6 -5 1 -5 -13z"/>
<path d="M5913 7005 c0 -22 2 -30 4 -17 2 12 2 30 0 40 -3 9 -5 -1 -4 -23z"/>
<path d="M3417 7001 c-4 -18 -6 -54 -6 -80 1 -41 3 -38 10 23 10 75 7 113 -4
57z"/>
<path d="M4580 7020 c0 -5 5 -10 10 -10 6 0 10 5 10 10 0 6 -4 10 -10 10 -5 0
-10 -4 -10 -10z"/>
<path d="M6880 7020 c0 -5 7 -10 15 -10 8 0 15 5 15 10 0 6 -7 10 -15 10 -8 0
-15 -4 -15 -10z"/>
<path d="M6820 7010 c0 -5 5 -10 10 -10 6 0 10 5 10 10 0 6 -4 10 -10 10 -5 0
-10 -4 -10 -10z"/>
<path d="M6870 6960 c0 -11 5 -20 10 -20 6 0 10 9 10 20 0 11 -4 20 -10 20 -5
0 -10 -9 -10 -20z"/>
<path d="M4005 6962 c-11 -11 -5 -33 8 -26 6 3 -1 -5 -18 -19 l-30 -26 50 24
c28 14 75 29 105 35 l55 9 -58 -5 c-36 -2 -56 -1 -53 5 6 10 -49 12 -59 3z"/>
<path d="M3597 6876 c-4 -49 -5 -91 -3 -93 7 -7 18 118 14 152 -2 17 -7 -10
-11 -59z"/>
<path d="M6564 6875 c0 -49 1 -71 3 -48 2 23 2 64 0 90 -2 26 -3 8 -3 -42z"/>
<path d="M4265 6925 c30 -13 61 -27 68 -31 7 -5 1 1 -13 14 -21 19 -22 22 -5
17 l20 -7 -20 14 c-11 7 -39 13 -63 14 l-43 1 56 -22z"/>
<path d="M6820 6940 c0 -5 11 -20 25 -34 14 -14 25 -34 25 -46 0 -11 5 -20 10
-20 20 0 10 61 -15 85 -25 26 -45 32 -45 15z"/>
<path d="M7885 6938 c-23 -25 14 -118 47 -118 16 0 7 25 -17 49 -30 28 -32 41
-5 41 23 0 26 10 8 28 -15 15 -20 14 -33 0z"/>
<path d="M4500 6911 c0 -19 26 -48 36 -39 3 3 2 17 -2 32 -7 30 -34 36 -34 7z"/>
<path d="M4480 6870 c0 -5 5 -10 10 -10 6 0 10 5 10 10 0 6 -4 10 -10 10 -5 0
-10 -4 -10 -10z"/>
<path d="M6846 6851 c-4 -7 -5 -15 -2 -18 9 -9 19 4 14 18 -4 11 -6 11 -12 0z"/>
<path d="M4401 6815 c12 -22 24 -42 26 -44 1 -2 1 10 0 27 -1 17 -4 28 -6 26
-2 -2 -13 4 -24 13 -17 16 -16 13 4 -22z"/>
<path d="M2771 6734 c1 -49 4 -100 9 -114 4 -14 5 25 2 85 -6 134 -12 151 -11
29z"/>
<path d="M3845 6770 c-9 -27 5 -48 17 -26 5 9 6 21 2 28 -4 7 -3 8 4 4 7 -4
12 -2 12 3 0 19 -28 12 -35 -9z"/>
<path d="M7830 6756 c0 -16 5 -26 15 -26 8 0 15 6 15 14 0 7 -7 19 -15 26 -13
11 -15 8 -15 -14z"/>
<path d="M4644 6744 c-18 -15 -18 -15 3 -4 15 7 174 10 497 8 261 -2 472 0
469 5 -2 4 -217 7 -477 7 -412 0 -475 -2 -492 -16z"/>
<path d="M3566 6521 c-10 -117 -16 -214 -14 -216 6 -7 42 398 36 415 -2 7 -12
-83 -22 -199z"/>
<path d="M4445 6649 c0 -43 3 -71 7 -61 9 23 9 114 0 128 -4 7 -7 -23 -7 -67z"/>
<path d="M7820 6700 c0 -5 5 -10 10 -10 6 0 10 5 10 10 0 6 -4 10 -10 10 -5 0
-10 -4 -10 -10z"/>
<path d="M4166 6659 c-36 -39 -37 -41 -21 -66 16 -23 15 -26 -2 -46 -14 -17
-11 -16 11 3 34 30 92 102 80 99 -5 -1 -17 1 -26 5 -14 6 -15 12 -7 27 15 29
5 23 -35 -22z"/>
<path d="M2971 6644 c1 -21 5 -50 10 -64 5 -16 6 -4 2 35 -6 70 -13 86 -12 29z"/>
<path d="M5650 6655 c-6 -15 -8 -30 -6 -33 3 -3 10 8 16 23 6 15 8 30 6 33 -3
3 -10 -8 -16 -23z"/>
<path d="M4044 6646 c-3 -14 -2 -31 2 -38 6 -9 2 -9 -12 2 -10 8 -3 -3 15 -23
34 -36 56 -52 32 -23 -14 17 -4 69 12 59 6 -3 2 6 -9 20 -24 33 -32 33 -40 3z"/>
<path d="M4470 6638 c1 -31 1 -32 15 -13 17 21 15 37 -3 43 -8 2 -12 -8 -12
-30z"/>
<path d="M6551 6644 c0 -11 3 -14 6 -6 3 7 2 16 -1 19 -3 4 -6 -2 -5 -13z"/>
<path d="M8280 6390 c0 -193 -3 -270 -11 -270 -8 0 -8 -4 0 -13 7 -9 12 -98
14 -258 1 -134 3 -7 5 284 1 290 0 527 -3 527 -3 0 -5 -121 -5 -270z"/>
<path d="M3382 6595 c0 -16 2 -22 5 -12 2 9 2 23 0 30 -3 6 -5 -1 -5 -18z"/>
<path d="M4627 6609 c7 -7 15 -10 18 -7 3 3 -2 9 -12 12 -14 6 -15 5 -6 -5z"/>
<path d="M5530 6600 l-85 -6 82 -2 c46 -1 85 2 88 8 3 6 5 9 3 8 -2 -1 -41 -5
-88 -8z"/>
<path d="M6541 6594 c0 -11 3 -14 6 -6 3 7 2 16 -1 19 -3 4 -6 -2 -5 -13z"/>
<path d="M4878 6593 c50 -2 134 -2 185 0 50 1 9 3 -93 3 -102 0 -143 -2 -92
-3z"/>
<path d="M5288 6593 c18 -2 45 -2 60 0 15 2 0 4 -33 4 -33 0 -45 -2 -27 -4z"/>
<path d="M3826 6574 c-18 -17 -19 -24 -10 -48 7 -18 39 -22 49 -6 8 14 -4 70
-15 70 -5 0 -16 -7 -24 -16z"/>
<path d="M2792 6550 c0 -14 2 -19 5 -12 2 6 2 18 0 25 -3 6 -5 1 -5 -13z"/>
<path d="M2991 6514 c0 -11 3 -14 6 -6 3 7 2 16 -1 19 -3 4 -6 -2 -5 -13z"/>
<path d="M4411 6508 c-8 -13 -21 -34 -30 -48 -11 -16 -12 -22 -3 -16 8 5 21 1
34 -11 11 -10 21 -16 23 -13 2 3 13 -8 25 -23 17 -21 20 -31 11 -40 -14 -14
-14 -27 0 -27 16 0 89 77 89 95 0 10 -10 15 -30 15 -16 0 -30 -5 -30 -11 0 -5
4 -8 9 -5 5 4 7 -3 4 -14 -3 -11 -9 -23 -14 -26 -5 -3 -6 2 -3 10 4 11 0 16
-15 16 -12 0 -21 6 -21 15 0 8 -7 15 -15 15 -14 0 -20 27 -17 73 2 22 0 22
-17 -5z"/>
<path d="M6521 6484 c0 -11 3 -14 6 -6 3 7 2 16 -1 19 -3 4 -6 -2 -5 -13z"/>
<path d="M3007 6450 c3 -19 12 -53 19 -75 13 -38 13 -38 7 -5 -3 19 -12 53
-19 75 -13 38 -13 38 -7 5z"/>
<path d="M2810 6449 c0 -13 5 -31 10 -39 7 -11 8 -5 4 20 -8 43 -14 51 -14 19z"/>
<path d="M3976 6376 c-7 -26 11 -38 47 -32 19 4 27 1 27 -9 0 -8 5 -15 11 -15
6 0 9 6 6 14 -3 8 0 16 8 18 7 2 -11 12 -40 24 l-54 21 -5 -21z"/>
<path d="M3690 6375 c0 -8 9 -19 20 -25 23 -12 25 -7 10 21 -13 22 -30 25 -30
4z"/>
<path d="M4265 6374 c-16 -7 -24 -13 -17 -14 6 0 11 -3 11 -7 -4 -24 3 -42 17
-47 22 -8 44 11 44 39 0 34 -20 44 -55 29z"/>
<path d="M6761 6374 c0 -11 3 -14 6 -6 3 7 2 16 -1 19 -3 4 -6 -2 -5 -13z"/>
<path d="M6481 6348 c-16 -43 -22 -68 -18 -68 3 0 12 20 20 45 16 45 14 65 -2
23z"/>
<path d="M5972 6325 c0 -16 2 -22 5 -12 2 9 2 23 0 30 -3 6 -5 -1 -5 -18z"/>
<path d="M3663 6325 c-7 -8 -13 -19 -13 -25 0 -5 -6 -9 -12 -7 -9 1 -14 -13
-16 -40 -4 -49 5 -54 33 -17 41 54 48 135 8 89z"/>
<path d="M3041 6327 c-1 -12 58 -159 75 -187 8 -14 13 -17 10 -8 -3 12 -1 15
10 11 8 -3 14 1 14 10 0 9 3 22 6 31 9 22 -22 21 -35 -1 -8 -16 -11 -14 -22
10 -11 24 -10 30 1 37 10 6 11 12 3 22 -6 7 -11 16 -10 20 1 3 -1 10 -5 14 -5
4 -8 -1 -9 -12 0 -12 -7 -5 -19 21 -10 22 -19 36 -19 32z"/>
<path d="M6662 6293 c-6 -20 -10 -39 -8 -41 2 -2 9 13 16 33 7 20 10 38 8 41
-3 2 -10 -13 -16 -33z"/>
<path d="M3563 6263 l-7 -58 -7 45 c-3 27 -7 34 -7 18 -1 -14 -14 -149 -28
-298 -14 -150 -24 -284 -22 -298 2 -15 11 65 22 178 19 211 24 240 41 237 6
-1 11 8 13 21 2 12 8 22 13 22 12 0 12 37 -1 45 -17 10 -11 25 10 25 17 0 20
7 20 44 0 53 -8 76 -25 76 -9 0 -16 -21 -22 -57z"/>
<path d="M3347 6294 c-3 -3 -3 -12 0 -20 3 -8 0 -21 -7 -29 -12 -14 -50 -85
-50 -93 0 -2 11 -1 24 2 21 5 25 2 28 -21 2 -16 7 14 12 65 8 89 6 109 -7 96z"/>
<path d="M4113 6253 c15 -2 39 -2 55 0 15 2 2 4 -28 4 -30 0 -43 -2 -27 -4z"/>
<path d="M4320 6246 c0 -2 7 -6 15 -10 8 -3 15 -1 15 4 0 6 -7 10 -15 10 -8 0
-15 -2 -15 -4z"/>
<path d="M6631 6209 c-6 -18 -9 -34 -7 -36 2 -2 9 10 15 28 6 18 9 34 7 36 -2
2 -9 -10 -15 -28z"/>
<path d="M3994 6214 c-18 -14 -18 -15 4 -4 12 6 22 13 22 15 0 8 -5 6 -26 -11z"/>
<path d="M3290 6210 c0 -5 5 -10 10 -10 6 0 10 5 10 10 0 6 -4 10 -10 10 -5 0
-10 -4 -10 -10z"/>
<path d="M6870 6200 c0 -11 5 -20 10 -20 6 0 10 9 10 20 0 11 -4 20 -10 20 -5
0 -10 -9 -10 -20z"/>
<path d="M6420 6189 c-6 -11 -10 -25 -8 -30 2 -5 8 4 15 21 13 34 9 40 -7 9z"/>
<path d="M4357 6159 c22 -24 50 -60 62 -79 24 -41 28 -33 6 11 -9 16 -13 34
-10 38 7 12 -24 43 -35 36 -5 -3 -11 -1 -15 5 -3 5 -16 15 -28 21 -14 7 -7 -5
20 -32z"/>
<path d="M6587 6104 c-30 -60 -32 -68 -17 -59 6 4 24 -5 42 -20 17 -14 38 -25
47 -23 21 4 26 32 8 49 -7 8 -12 19 -10 25 5 16 -38 25 -55 12 -11 -10 -11 -4
2 26 25 59 13 53 -17 -10z"/>
<path d="M2910 6146 c0 -12 29 -76 35 -76 3 0 -2 17 -10 37 -16 38 -25 52 -25
39z"/>
<path d="M3271 6134 c0 -11 3 -14 6 -6 3 7 2 16 -1 19 -3 4 -6 -2 -5 -13z"/>
<path d="M3897 6133 c-4 -3 -7 -11 -7 -17 0 -6 5 -5 12 2 6 6 9 14 7 17 -3 3
-9 2 -12 -2z"/>
<path d="M3290 6103 c0 -12 -7 -28 -15 -37 -14 -14 -20 -36 -10 -36 3 0 14 8
25 17 22 19 25 40 10 63 -8 12 -10 11 -10 -7z"/>
<path d="M5992 6080 c0 -19 2 -27 5 -17 2 9 2 25 0 35 -3 9 -5 1 -5 -18z"/>
<path d="M6730 6095 c0 -8 5 -15 10 -15 6 0 10 7 10 15 0 8 -4 15 -10 15 -5 0
-10 -7 -10 -15z"/>
<path d="M7970 6095 c0 -9 5 -15 11 -13 6 2 11 8 11 13 0 5 -5 11 -11 13 -6 2
-11 -4 -11 -13z"/>
<path d="M3326 6074 c-10 -25 -7 -82 4 -89 6 -4 10 15 10 49 0 58 -3 68 -14
40z"/>
<path d="M4688 6043 c7 -3 16 -2 19 1 4 3 -2 6 -13 5 -11 0 -14 -3 -6 -6z"/>
<path d="M5003 6043 c97 -2 257 -2 355 0 97 1 17 2 -178 2 -195 0 -275 -1
-177 -2z"/>
<path d="M3170 6037 c0 -10 49 -87 56 -87 3 0 2 5 -1 10 -4 6 -3 16 2 23 5 7
10 22 11 35 1 26 -25 30 -35 6 -6 -15 -8 -15 -20 2 -7 10 -13 15 -13 11z"/>
<path d="M4441 6024 c0 -11 3 -14 6 -6 3 7 2 16 -1 19 -3 4 -6 -2 -5 -13z"/>
<path d="M6292 6015 c-18 -20 -22 -34 -17 -56 l7 -30 17 23 c10 13 26 39 36
58 15 28 15 33 3 22 -11 -9 -17 -9 -20 -2 -2 6 -14 -1 -26 -15z"/>
<path d="M6003 5970 c0 -30 2 -43 4 -27 2 15 2 39 0 55 -2 15 -4 2 -4 -28z"/>
<path d="M5652 5970 c-1 -20 -8 -43 -14 -50 -7 -9 -5 -8 5 1 13 11 17 26 14
50 l-4 34 -1 -35z"/>
<path d="M4550 5977 c0 -18 11 -26 40 -32 14 -3 20 2 20 16 0 10 -6 19 -14 19
-8 0 -21 3 -30 6 -10 4 -16 1 -16 -9z"/>
<path d="M7800 5975 c0 -8 5 -15 10 -15 6 0 10 7 10 15 0 8 -4 15 -10 15 -5 0
-10 -7 -10 -15z"/>
<path d="M3842 5950 c0 -14 2 -19 5 -12 2 6 2 18 0 25 -3 6 -5 1 -5 -13z"/>
<path d="M4164 5948 l-19 -23 23 19 c21 18 27 26 19 26 -2 0 -12 -10 -23 -22z"/>
<path d="M4450 5935 c0 -19 -9 -58 -20 -87 -24 -63 -24 -68 -5 -42 8 11 15 14
15 7 0 -7 9 -13 20 -13 22 0 27 16 8 23 -9 2 -12 25 -10 75 1 40 0 72 -3 72
-3 0 -5 -16 -5 -35z"/>
<path d="M7730 5960 c0 -5 5 -10 10 -10 6 0 10 5 10 10 0 6 -4 10 -10 10 -5 0
-10 -4 -10 -10z"/>
<path d="M4186 5934 c-9 -23 -7 -31 4 -14 5 8 12 11 16 7 4 -3 1 -15 -7 -24
-12 -16 -11 -16 8 1 19 16 20 20 8 32 -17 18 -21 18 -29 -2z"/>
<path d="M4010 5921 c0 -5 5 -13 10 -16 6 -3 10 -2 10 4 0 5 -4 13 -10 16 -5
3 -10 2 -10 -4z"/>
<path d="M3310 5891 c-19 -21 -40 -67 -40 -89 0 -13 2 -14 9 -4 7 11 11 11 24
-2 14 -14 16 -10 22 45 4 33 6 61 4 63 -2 1 -11 -5 -19 -13z"/>
<path d="M6462 5878 c-11 -18 -30 -49 -42 -68 -21 -32 -21 -34 -2 -17 19 18
20 17 33 -12 8 -17 21 -31 31 -31 9 0 18 -5 20 -11 4 -12 41 52 53 90 7 22 5
24 -24 18 -27 -6 -31 -4 -31 16 0 44 -16 51 -38 15z"/>
<path d="M3030 5865 c-6 -19 -18 -35 -26 -35 -8 0 -14 -5 -14 -12 0 -6 -7 -3
-15 8 -8 10 -14 15 -14 9 0 -13 68 -143 69 -132 0 5 -5 17 -11 28 -17 32 15
62 63 57 l37 -3 -21 35 c-12 19 -29 45 -39 58 l-17 23 -12 -36z"/>
<path d="M6012 5880 c0 -14 2 -19 5 -12 2 6 2 18 0 25 -3 6 -5 1 -5 -13z"/>
<path d="M6203 5865 c0 -22 2 -30 4 -17 2 12 2 30 0 40 -3 9 -5 -1 -4 -23z"/>
<path d="M2725 5860 c-38 -10 -67 -18 -63 -19 12 -2 192 30 197 35 10 10 -70
0 -134 -16z"/>
<path d="M4074 5851 c17 -17 34 -31 39 -31 14 0 -23 39 -48 52 -14 8 -12 2 9
-21z"/>
<path d="M3252 5830 c-5 -100 -15 -180 -24 -180 -6 0 -18 10 -27 22 -12 15
-18 17 -19 7 -1 -8 -5 -29 -8 -48 -6 -31 -5 -32 14 -22 11 6 30 11 41 11 11 0
22 9 26 20 3 11 11 20 16 20 12 0 12 53 0 66 -6 5 -12 41 -14 79 -2 46 -4 55
-5 25z"/>
<path d="M6785 5861 c-20 -8 -22 -8 90 -27 25 -4 23 -2 -14 16 -47 22 -47 22
-76 11z"/>
<path d="M2578 5823 c7 -3 16 -2 19 1 4 3 -2 6 -13 5 -11 0 -14 -3 -6 -6z"/>
<path d="M6935 5821 c11 -5 36 -11 55 -15 l35 -6 -30 15 c-16 8 -41 14 -55 14
-23 0 -23 -1 -5 -8z"/>
<path d="M2538 5813 c7 -3 16 -2 19 1 4 3 -2 6 -13 5 -11 0 -14 -3 -6 -6z"/>
<path d="M7063 5784 c2 -2 20 -10 40 -19 36 -15 37 -15 25 4 -7 12 -22 19 -40
19 -16 -1 -27 -2 -25 -4z"/>
<path d="M6212 5750 c0 -19 4 -48 8 -65 l8 -30 0 35 c0 19 -4 49 -8 65 l-8 30
0 -35z"/>
<path d="M4362 5737 l-22 -23 23 -1 c12 0 16 1 9 4 -10 4 -9 9 4 24 24 27 12
24 -14 -4z"/>
<path d="M6338 5695 c-42 -56 -58 -58 -58 -5 0 33 -3 40 -20 40 -24 0 -28 -35
-5 -44 12 -4 15 -19 14 -60 -2 -53 -16 -69 -31 -36 -10 22 -9 -75 1 -150 5
-36 12 -102 16 -146 l7 -81 -39 -8 c-27 -6 -32 -10 -18 -13 11 -2 26 -9 33
-15 11 -9 11 -12 -5 -18 -17 -7 -17 -8 2 -7 29 0 75 16 52 17 -10 1 -16 5 -12
10 3 5 -1 67 -10 138 -18 151 -19 186 -5 178 6 -3 10 0 10 8 0 8 8 21 18 30
15 14 24 15 57 4 27 -8 40 -8 42 -1 2 6 9 19 16 28 17 23 67 12 67 -15 0 -10
5 -19 10 -19 6 0 10 11 10 25 0 14 -5 25 -11 25 -5 0 -8 4 -5 9 3 5 -1 12 -10
15 -9 4 -13 13 -10 24 5 13 0 18 -19 20 -14 1 -25 -4 -26 -11 -1 -6 -5 8 -10
33 -5 25 -13 46 -19 48 -6 2 -8 8 -4 13 3 5 3 9 0 9 -3 0 -20 -20 -38 -45z"/>
<path d="M7238 5681 c79 -78 94 -162 43 -242 l-28 -46 38 -10 c39 -10 39 -10
39 19 0 16 -4 37 -9 46 -5 10 -6 37 -1 62 9 49 -3 90 -40 137 -11 14 -17 30
-13 37 3 6 3 8 -2 4 -4 -4 -22 2 -39 14 -24 17 -21 12 12 -21z"/>
<path d="M1186 5510 c3 -113 9 -225 14 -250 6 -34 7 -24 3 36 -3 45 -9 157
-13 250 l-9 169 5 -205z"/>
<path d="M2259 5673 c-13 -16 -12 -17 4 -4 9 7 17 15 17 17 0 8 -8 3 -21 -13z"/>
<path d="M3045 5660 c18 -35 19 -57 3 -63 -7 -3 -3 -6 10 -6 12 -1 22 4 22 9
0 14 -39 90 -45 90 -3 0 1 -13 10 -30z"/>
<path d="M4000 5670 l25 -20 -22 0 c-13 0 -23 -4 -23 -10 0 -5 2 -10 4 -10 2
0 11 -3 20 -6 11 -4 16 -1 16 11 0 14 6 16 38 11 20 -3 30 -3 22 0 -8 4 -35
15 -60 25 l-45 19 25 -20z"/>
<path d="M2585 5650 c-3 -5 -2 -10 2 -10 5 0 21 -12 36 -26 27 -25 29 -25 42
-8 20 28 2 54 -40 54 -18 0 -37 -4 -40 -10z"/>
<path d="M4220 5650 c-21 -7 -21 -8 -5 -9 11 0 27 4 35 9 18 11 5 11 -30 0z"/>
<path d="M6936 5636 c8 -21 27 -26 47 -11 16 12 16 13 -5 19 -36 9 -48 7 -42
-8z"/>
<path d="M3483 5605 c0 -22 2 -30 4 -17 2 12 2 30 0 40 -3 9 -5 -1 -4 -23z"/>
<path d="M4267 5633 c-13 -12 -7 -54 8 -60 21 -8 29 2 20 24 -5 10 -7 24 -6
31 2 13 -11 16 -22 5z"/>
<path d="M2415 5570 c-9 -17 -14 -37 -12 -43 2 -7 12 6 21 27 20 48 14 60 -9
16z"/>
<path d="M3123 5585 c-3 -9 -3 -18 0 -21 9 -9 27 6 27 22 0 19 -19 18 -27 -1z"/>
<path d="M6868 5587 c8 -8 22 -37 33 -64 11 -26 17 -34 13 -18 -4 17 -7 41 -8
55 -1 14 -5 25 -11 25 -5 0 -17 4 -25 10 -13 7 -13 6 -2 -8z"/>
<path d="M2940 5570 c-13 -8 -12 -10 3 -10 10 0 16 -4 13 -8 -3 -5 2 -21 10
-36 19 -37 18 -46 -6 -46 -14 0 -18 -5 -13 -17 6 -17 6 -17 -11 0 -10 10 -25
16 -32 13 -8 -3 -14 -1 -14 4 0 6 -12 10 -28 10 -21 0 -30 -7 -41 -31 -7 -16
-16 -28 -18 -25 -3 3 4 24 15 48 20 40 20 41 2 20 -45 -55 -46 -145 -2 -186
17 -14 19 -14 35 4 9 11 23 20 30 20 7 0 21 11 31 25 10 14 27 25 37 25 12 0
19 7 19 18 0 24 35 52 65 52 25 0 33 14 15 25 -5 3 -10 14 -10 23 0 21 -54 82
-72 82 -7 0 -20 -5 -28 -10z"/>
<path d="M7087 5567 c-3 -7 1 -21 9 -32 13 -18 14 -17 14 7 0 29 -15 45 -23
25z"/>
<path d="M4270 5540 c0 -5 5 -10 10 -10 6 0 10 5 10 10 0 6 -4 10 -10 10 -5 0
-10 -4 -10 -10z"/>
<path d="M4300 5540 c0 -5 5 -10 10 -10 6 0 10 5 10 10 0 6 -4 10 -10 10 -5 0
-10 -4 -10 -10z"/>
<path d="M3473 5495 c0 -27 2 -38 4 -22 2 15 2 37 0 50 -2 12 -4 0 -4 -28z"/>
<path d="M3282 5490 c0 -19 2 -27 5 -17 2 9 2 25 0 35 -3 9 -5 1 -5 -18z"/>
<path d="M3550 5476 c0 -9 5 -16 10 -16 6 0 10 4 10 9 0 6 -4 13 -10 16 -5 3
-10 -1 -10 -9z"/>
<path d="M6470 5474 c0 -16 23 -44 35 -44 4 0 4 12 1 26 -5 17 -3 23 4 19 5
-3 10 -1 10 4 0 6 -11 11 -25 11 -16 0 -25 -6 -25 -16z"/>
<path d="M3740 5460 c0 -5 5 -10 10 -10 6 0 10 5 10 10 0 6 -4 10 -10 10 -5 0
-10 -4 -10 -10z"/>
<path d="M7040 5460 c-13 -9 -13 -11 0 -20 19 -12 35 -8 35 10 0 18 -16 22
-35 10z"/>
<path d="M4190 5445 c0 -8 5 -15 10 -15 6 0 10 7 10 15 0 8 -4 15 -10 15 -5 0
-10 -7 -10 -15z"/>
<path d="M2460 5429 c26 -18 70 -40 70 -35 0 6 -66 46 -76 46 -5 0 -2 -5 6
-11z"/>
<path d="M3253 5427 c-24 -11 -29 -22 -14 -31 5 -3 12 -27 16 -53 9 -64 27
-33 23 41 -3 51 -4 53 -25 43z"/>
<path d="M3568 5426 c-23 -17 -23 -26 2 -26 13 0 20 7 20 20 0 23 0 23 -22 6z"/>
<path d="M6980 5400 c-30 -16 -52 -29 -48 -30 12 0 118 48 118 54 0 10 -14 5
-70 -24z"/>
<path d="M3456 5327 c-4 -54 -5 -101 -2 -104 3 -4 6 6 6 22 0 16 3 26 6 23 3
-3 16 5 29 18 19 18 22 29 16 42 -5 9 -13 26 -16 37 l-7 20 -8 -20 c-6 -16 -9
-12 -12 20 -2 27 -6 7 -12 -58z"/>
<path d="M4260 5410 c0 -5 5 -10 10 -10 6 0 10 5 10 10 0 6 -4 10 -10 10 -5 0
-10 -4 -10 -10z"/>
<path d="M6303 5399 c2 -12 14 -32 26 -45 20 -21 20 -23 5 -32 -9 -5 -25 -7
-35 -5 -16 5 -19 0 -19 -28 0 -26 3 -30 10 -19 7 11 10 11 10 2 0 -7 4 -11 9
-8 16 10 59 -12 66 -34 6 -19 12 -21 43 -16 l37 5 -35 -14 -35 -15 35 6 c19 4
50 13 70 20 24 10 27 13 9 9 -32 -6 -91 13 -83 27 3 5 -5 12 -17 16 -23 6 -23
6 6 12 28 5 30 8 33 58 l3 52 -35 0 c-25 0 -36 4 -36 15 0 22 -15 18 -33 -7
-13 -19 -16 -20 -16 -6 -1 9 -6 20 -11 23 -6 4 -9 -3 -7 -16z"/>
<path d="M6725 5374 c-4 -10 -11 -27 -16 -38 -8 -13 -7 -16 1 -11 13 8 33 56
26 63 -3 3 -8 -4 -11 -14z"/>
<path d="M3537 5363 c-4 -3 -7 -13 -7 -21 0 -12 3 -12 15 -2 8 7 15 16 15 21
0 11 -14 12 -23 2z"/>
<path d="M2257 5354 c-12 -12 -8 -21 16 -37 23 -15 24 -15 23 11 -1 26 -24 41
-39 26z"/>
<path d="M3690 5340 c0 -11 4 -20 9 -20 5 0 12 -10 16 -22 7 -22 7 -22 12 -3
3 10 0 21 -6 23 -6 2 -11 12 -11 23 0 10 -4 19 -10 19 -5 0 -10 -9 -10 -20z"/>
<path d="M7191 5344 c-16 -12 -19 -19 -11 -33 5 -10 6 -22 2 -26 -4 -4 2 -3
13 3 11 5 28 19 37 29 16 18 16 19 -1 30 -14 9 -23 8 -40 -3z"/>
<path d="M7277 5272 c-12 -111 -53 -225 -110 -307 -13 -18 -15 -25 -6 -17 24
18 120 192 113 203 -11 18 6 67 24 65 21 -1 28 35 9 49 -8 6 -17 24 -19 40 -2
20 -6 8 -11 -33z"/>
<path d="M2210 5306 c0 -8 5 -18 10 -21 6 -3 10 1 10 9 0 8 -4 18 -10 21 -5 3
-10 -1 -10 -9z"/>
<path d="M2367 5305 c12 -23 6 -48 -9 -39 -7 4 -8 2 -4 -5 4 -6 21 -18 38 -27
16 -9 28 -12 25 -7 -3 5 3 16 13 23 21 15 24 12 -44 56 -29 18 -29 18 -19 -1z"/>
<path d="M7054 5259 c-31 -11 -37 -27 -14 -34 11 -4 17 -11 14 -17 -3 -5 8 -2
26 7 23 12 29 19 20 25 -7 4 -15 12 -19 18 -3 5 -15 6 -27 1z"/>
<path d="M2995 5250 c3 -5 10 -10 16 -10 5 0 9 5 9 10 0 6 -7 10 -16 10 -8 0
-12 -4 -9 -10z"/>
<path d="M2974 5232 c8 -8 169 -52 174 -47 2 2 -7 7 -21 10 -17 5 -24 12 -20
21 3 8 -1 15 -8 16 -34 4 -129 4 -125 0z"/>
<path d="M2595 5191 c3 -5 -7 -19 -22 -30 -16 -11 -34 -26 -41 -31 -7 -6 -17
-8 -22 -5 -16 10 -12 -6 15 -52 25 -42 43 -58 32 -29 -6 14 27 33 47 27 5 -1
2 9 -8 23 -23 35 -21 49 7 40 29 -9 44 -12 34 -6 -4 2 2 12 14 23 l22 19 -36
15 c-42 17 -50 19 -42 6z"/>
<path d="M6865 5177 c-45 -21 -48 -24 -26 -30 13 -3 32 -2 42 4 10 5 26 9 36
9 17 -1 16 -2 -2 -16 -20 -16 -20 -16 3 -9 15 4 22 2 22 -7 0 -10 2 -10 9 1
10 16 19 5 30 -37 l8 -27 17 34 c18 34 18 34 -5 52 -13 10 -32 21 -41 25 -10
3 -18 10 -18 15 0 14 -21 10 -75 -14z"/>
<path d="M1211 5174 c0 -11 3 -14 6 -6 3 7 2 16 -1 19 -3 4 -6 -2 -5 -13z"/>
<path d="M3377 5178 c15 -24 11 -38 -10 -39 -20 -1 -20 -2 3 -9 14 -4 36 -8
50 -8 21 1 22 1 4 5 -16 3 -20 9 -17 24 3 10 10 19 17 19 18 0 -18 20 -37 20
-12 0 -16 -4 -10 -12z"/>
<path d="M6318 5173 c7 -3 16 -2 19 1 4 3 -2 6 -13 5 -11 0 -14 -3 -6 -6z"/>
<path d="M2251 5153 c-1 -12 4 -25 9 -28 12 -7 12 2 0 30 -8 19 -9 19 -9 -2z"/>
<path d="M3308 5143 c6 -2 18 -2 25 0 6 3 1 5 -13 5 -14 0 -19 -2 -12 -5z"/>
<path d="M1221 5124 c0 -11 3 -14 6 -6 3 7 2 16 -1 19 -3 4 -6 -2 -5 -13z"/>
<path d="M3545 5111 c-25 -6 -15 -9 53 -20 46 -7 86 -10 89 -8 2 3 -22 9 -54
13 -43 5 -53 9 -38 15 l20 8 -20 -1 c-11 0 -33 -3 -50 -7z"/>
<path d="M6018 5113 c7 -3 16 -2 19 1 4 3 -2 6 -13 5 -11 0 -14 -3 -6 -6z"/>
<path d="M5910 5100 c-34 -7 -34 -7 -5 -8 17 0 44 4 60 8 27 7 27 8 5 8 -14
-1 -41 -4 -60 -8z"/>
<path d="M6592 5082 c-43 -14 -51 -19 -41 -29 7 -7 20 -13 29 -13 9 -1 6 -6
-10 -15 l-25 -15 30 7 c50 11 163 53 125 47 -19 -4 -32 -3 -28 1 6 6 -15 36
-24 34 -2 0 -27 -8 -56 -17z"/>
<path d="M1231 5074 c0 -11 3 -14 6 -6 3 7 2 16 -1 19 -3 4 -6 -2 -5 -13z"/>
<path d="M2885 5071 c-3 -12 -14 -21 -23 -22 -20 -1 76 -37 98 -37 9 0 10 1 3
4 -21 9 -2 34 26 35 l26 1 -30 13 c-16 7 -44 16 -62 19 -26 6 -32 4 -38 -13z"/>
<path d="M5828 5083 c6 -2 18 -2 25 0 6 3 1 5 -13 5 -14 0 -19 -2 -12 -5z"/>
<path d="M3733 5073 c9 -2 23 -2 30 0 6 3 -1 5 -18 5 -16 0 -22 -2 -12 -5z"/>
<path d="M5753 5073 c9 -2 23 -2 30 0 6 3 -1 5 -18 5 -16 0 -22 -2 -12 -5z"/>
<path d="M3808 5063 c12 -2 30 -2 40 0 9 3 -1 5 -23 4 -22 0 -30 -2 -17 -4z"/>
<path d="M5610 5060 c-34 -7 -34 -7 -5 -8 17 0 50 3 75 7 l45 8 -40 0 c-22 0
-56 -3 -75 -7z"/>
<path d="M3930 5049 c30 -4 98 -10 150 -13 l95 -5 -120 14 c-129 15 -215 18
-125 4z"/>
<path d="M6888 5038 c-22 -33 -42 -74 -33 -66 11 10 37 -41 28 -56 -5 -7 -2
-7 8 1 17 14 67 99 53 90 -15 -9 -47 21 -41 38 9 22 2 19 -15 -7z"/>
<path d="M1241 5039 c-1 -20 65 -229 79 -249 14 -22 12 -9 -6 41 -9 24 -29 85
-45 134 -15 50 -28 83 -28 74z"/>
<path d="M5498 5043 c12 -2 30 -2 40 0 9 3 -1 5 -23 4 -22 0 -30 -2 -17 -4z"/>
<path d="M5388 5033 c12 -2 30 -2 40 0 9 3 -1 5 -23 4 -22 0 -30 -2 -17 -4z"/>
<path d="M7280 5020 c0 -17 7 -20 45 -20 38 0 45 3 45 20 0 23 -28 27 -49 8
-11 -10 -14 -10 -18 0 -7 19 -23 14 -23 -8z"/>
<path d="M4243 5023 c20 -2 54 -2 75 0 20 2 3 4 -38 4 -41 0 -58 -2 -37 -4z"/>
<path d="M5198 5023 c23 -2 61 -2 85 0 23 2 4 4 -43 4 -47 0 -66 -2 -42 -4z"/>
<path d="M4563 5013 c108 -2 286 -2 395 0 108 1 19 2 -198 2 -217 0 -306 -1
-197 -2z"/>
<path d="M6450 4990 c-11 -8 -7 -9 15 -4 37 8 45 14 19 14 -10 0 -26 -5 -34
-10z"/>
<path d="M7250 4983 c0 -10 -9 -24 -20 -31 -12 -7 -17 -18 -13 -29 4 -10 2
-14 -4 -10 -16 10 -43 -2 -43 -19 0 -7 -9 -18 -20 -24 -11 -6 -20 -20 -20 -30
0 -23 -10 -26 -28 -8 -9 9 -12 8 -12 -5 0 -9 -4 -17 -10 -17 -14 0 -12 23 3
40 6 8 -3 2 -20 -14 -34 -31 -46 -49 -16 -25 15 13 15 12 5 -8 -15 -28 -15
-31 3 -35 11 -2 7 -12 -15 -37 -33 -37 -37 -51 -16 -51 8 0 18 9 21 20 5 15
15 20 41 20 37 0 43 12 18 37 -14 14 -12 18 15 37 17 11 31 29 31 39 0 16 21
22 58 18 7 -1 12 9 12 22 0 14 7 28 16 31 8 3 13 10 10 15 -4 5 1 16 9 24 17
18 20 43 5 52 -5 3 -10 -2 -10 -12z"/>
<path d="M2330 4981 c0 -6 4 -13 10 -16 6 -3 7 1 4 9 -7 18 -14 21 -14 7z"/>
<path d="M3368 4973 c6 -2 12 -11 12 -18 0 -8 11 -22 25 -33 13 -11 21 -22 18
-26 -3 -3 0 -6 8 -6 10 -1 8 -5 -5 -15 -25 -19 -18 -19 27 0 20 8 53 15 74 16
21 0 32 3 25 6 -20 8 -66 53 -56 54 13 2 -108 28 -126 28 -10 0 -11 -2 -2 -6z"/>
<path d="M3158 4963 c7 -3 16 -2 19 1 4 3 -2 6 -13 5 -11 0 -14 -3 -6 -6z"/>
<path d="M6053 4963 c-15 -3 -20 -9 -16 -19 4 -10 -2 -17 -17 -21 -16 -4 -18
-8 -8 -14 8 -6 -5 -9 -37 -10 l-50 -2 60 -7 c33 -4 69 -11 80 -15 20 -8 20 -7
1 7 -19 15 -19 16 2 22 11 4 28 20 36 37 14 28 14 29 -7 28 -12 -1 -32 -4 -44
-6z"/>
<path d="M7285 4960 c-3 -5 1 -10 9 -10 9 0 16 5 16 10 0 6 -4 10 -9 10 -6 0
-13 -4 -16 -10z"/>
<path d="M3198 4953 c6 -2 18 -2 25 0 6 3 1 5 -13 5 -14 0 -19 -2 -12 -5z"/>
<path d="M6230 4940 c-20 -6 -21 -8 -5 -8 11 0 31 4 45 8 20 6 21 8 5 8 -11 0
-31 -4 -45 -8z"/>
<path d="M3620 4930 c8 -5 31 -9 50 -9 l35 1 -30 8 c-16 4 -39 8 -50 9 -16 1
-17 -1 -5 -9z"/>
<path d="M5815 4929 c-79 -12 -80 -12 -83 -43 -1 -17 3 -26 13 -26 8 0 19 -9
25 -20 l11 -21 29 21 c16 11 44 27 62 35 19 8 25 14 16 15 -25 0 -22 16 4 34
21 15 21 16 3 15 -11 -1 -47 -5 -80 -10z"/>
<path d="M2707 4884 c-10 -13 -23 -22 -29 -18 -18 12 9 -30 34 -51 12 -11 17
-13 10 -5 -10 12 -7 17 17 30 l29 15 -21 27 -22 26 -18 -24z"/>
<path d="M3848 4904 c17 -8 15 -24 -3 -24 -9 0 -18 -7 -21 -15 -4 -8 -12 -15
-20 -15 -12 0 -16 -11 -13 -37 0 -4 -6 -10 -14 -13 -11 -4 -8 -15 15 -50 15
-24 28 -38 28 -31 0 7 11 27 25 45 22 29 23 35 10 46 -21 17 -19 43 3 36 9 -2
51 -7 92 -10 l75 -5 -55 13 c-30 8 -48 14 -39 15 14 1 35 29 27 36 -2 1 -30 5
-63 8 -33 4 -54 4 -47 1z"/>
<path d="M6189 4856 c-13 -25 -27 -42 -32 -39 -5 3 2 -11 14 -30 l23 -35 15
30 c8 17 23 33 32 35 14 4 16 10 7 33 -19 55 -35 57 -59 6z"/>
<path d="M6785 4889 c-4 -6 -5 -12 -2 -15 2 -3 7 2 10 11 7 17 1 20 -8 4z"/>
<path d="M5498 4883 c12 -2 32 -2 45 0 12 2 2 4 -23 4 -25 0 -35 -2 -22 -4z"/>
<path d="M6812 4848 c1 -16 2 -28 4 -28 1 0 11 12 22 28 l20 27 -23 0 c-19 0
-23 -5 -23 -27z"/>
<path d="M3270 4849 c-6 -11 -10 -25 -8 -30 2 -5 8 4 15 21 13 34 9 40 -7 9z"/>
<path d="M4213 4863 c9 -2 25 -2 35 0 9 3 1 5 -18 5 -19 0 -27 -2 -17 -5z"/>
<path d="M4473 4853 c9 -2 23 -2 30 0 6 3 -1 5 -18 5 -16 0 -22 -2 -12 -5z"/>
<path d="M4915 4850 c3 -5 15 -10 26 -10 10 0 19 5 19 10 0 6 -12 10 -26 10
-14 0 -23 -4 -19 -10z"/>
<path d="M5036 4850 c11 -4 36 -5 55 0 31 7 29 8 -21 8 -39 1 -49 -2 -34 -8z"/>
<path d="M3293 4828 c5 -27 22 -34 31 -13 8 21 -1 35 -20 35 -9 0 -13 -8 -11
-22z"/>
<path d="M4210 4840 c11 -7 -4 -10 -50 -11 l-65 -2 60 -7 c33 -4 87 -8 120 -7
51 0 53 1 15 4 -25 3 -49 11 -53 19 -4 8 -16 14 -25 14 -15 0 -15 -2 -2 -10z"/>
<path d="M5366 4829 c-65 -4 -121 -11 -125 -14 -6 -7 158 2 284 15 67 7 68 7
15 7 -30 0 -108 -4 -174 -8z"/>
<path d="M4479 4813 c49 -4 53 -6 48 -26 -6 -21 -6 -21 8 -3 20 27 4 36 -60
34 l-50 -2 54 -3z"/>
<path d="M5013 4813 c9 -2 23 -2 30 0 6 3 -1 5 -18 5 -16 0 -22 -2 -12 -5z"/>
<path d="M4743 4803 c15 -2 37 -2 50 0 12 2 0 4 -28 4 -27 0 -38 -2 -22 -4z"/>
<path d="M4990 4793 c0 -6 8 -17 18 -24 16 -13 16 -13 2 6 -8 11 -16 22 -17
24 -2 2 -3 0 -3 -6z"/>
<path d="M3255 4770 c-10 -11 -14 -20 -9 -21 5 0 -7 -7 -26 -15 -22 -9 -26
-12 -10 -9 14 2 41 5 61 5 33 0 36 2 35 27 -1 35 -26 41 -51 13z"/>
<path d="M3335 4779 c-4 -6 -5 -12 -2 -15 2 -3 7 2 10 11 7 17 1 20 -8 4z"/>
<path d="M5650 4786 c0 -2 -7 -20 -16 -41 -8 -20 -11 -34 -6 -31 6 3 12 -1 16
-9 6 -18 -10 -30 -18 -13 -3 7 -3 3 -1 -9 3 -12 1 -25 -6 -28 -8 -6 -8 -9 0
-15 7 -4 -6 -12 -30 -19 -57 -17 -46 -20 34 -7 57 9 67 13 67 31 1 11 7 37 14
57 13 36 12 38 -15 63 -27 23 -39 30 -39 21z"/>
<path d="M6340 4775 c10 -12 10 -15 0 -15 -7 0 -10 -6 -7 -14 3 -8 0 -16 -8
-18 -7 -2 10 -13 39 -25 47 -21 49 -21 27 -3 -13 11 -18 20 -12 20 6 0 20 9
31 20 18 18 18 20 2 28 -9 5 -32 12 -51 16 -29 5 -32 4 -21 -9z"/>
<path d="M6626 4725 c-38 -36 -74 -65 -79 -65 -6 0 -19 7 -29 16 -19 18 -20
17 -32 -39 -4 -15 -10 -26 -15 -23 -4 3 -6 -5 -4 -19 5 -21 0 -25 -32 -31 -28
-5 -35 -10 -30 -23 4 -9 7 -20 8 -25 1 -6 -45 -21 -103 -35 -57 -13 -99 -26
-92 -29 15 -5 398 92 442 113 19 9 26 14 14 12 -17 -3 -20 0 -16 18 3 19 0 21
-27 17 -42 -6 -39 10 7 42 36 25 118 104 97 94 -12 -6 -46 28 -37 36 3 3 3 6
1 6 -2 0 -35 -29 -73 -65z m12 -48 c15 6 15 5 3 -10 -7 -9 -19 -17 -26 -17
-18 0 -26 25 -12 39 9 9 13 9 15 -3 2 -9 9 -13 20 -9z m-133 -147 c-28 -12
-47 -12 -40 0 3 6 18 10 33 9 24 0 25 -1 7 -9z"/>
<path d="M3095 4761 c-22 -10 -58 -37 -80 -59 -24 -27 -42 -38 -49 -33 -8 7
-11 -9 -11 -49 0 -49 3 -61 20 -70 18 -9 17 -10 -7 -5 -16 3 -40 7 -55 10 -16
3 6 -6 47 -20 95 -31 105 -31 75 1 -27 29 -31 55 -14 103 7 19 18 31 29 31 10
0 26 3 36 7 12 4 15 3 10 -5 -11 -18 0 -14 15 5 12 14 12 16 0 8 -11 -6 -13
-4 -8 9 4 10 7 28 7 40 0 14 9 27 23 34 38 18 4 13 -38 -7z"/>
<path d="M4592 4760 c-3 -8 -7 -18 -9 -22 -7 -13 2 -9 36 16 l32 24 -27 -2
c-14 0 -29 -8 -32 -16z"/>
<path d="M2828 4749 c-9 -9 -13 -21 -10 -26 4 -4 -3 1 -15 11 -27 22 -31 7 -5
-16 21 -20 53 -18 75 4 13 12 14 18 4 25 -24 19 -32 20 -49 2z"/>
<path d="M2581 4732 c11 -17 58 -37 66 -28 2 1 -16 13 -38 25 -39 22 -40 22
-28 3z"/>
<path d="M4947 4718 c19 -21 31 -24 14 -4 -9 11 -9 15 1 19 7 3 3 4 -9 4 -21
-1 -21 -2 -6 -19z"/>
<path d="M7240 4730 c0 -5 5 -10 10 -10 6 0 10 5 10 10 0 6 -4 10 -10 10 -5 0
-10 -4 -10 -10z"/>
<path d="M1351 4725 c0 -5 6 -21 14 -35 8 -14 14 -20 14 -15 0 6 -6 21 -14 35
-8 14 -14 21 -14 15z"/>
<path d="M6869 4702 c-14 -9 -24 -23 -21 -30 2 -7 -1 -19 -8 -26 -8 -11 -8
-16 1 -21 15 -10 30 15 24 40 -3 15 4 26 23 38 15 9 23 16 17 16 -5 0 -22 -8
-36 -17z"/>
<path d="M7150 4699 c-7 -11 -10 -23 -7 -25 8 -8 37 8 37 21 0 24 -19 26 -30
4z"/>
<path d="M7190 4710 c0 -5 7 -10 15 -10 8 0 15 5 15 10 0 6 -7 10 -15 10 -8 0
-15 -4 -15 -10z"/>
<path d="M4454 4685 c-5 -21 -12 -25 -40 -25 -19 0 -34 -4 -34 -10 0 -5 7 -10
16 -10 8 0 12 -4 9 -10 -4 -6 9 -11 32 -11 l38 -2 -42 -6 c-66 -11 -59 -17 15
-13 37 2 68 5 68 6 1 0 5 12 9 26 7 22 6 23 -9 11 -14 -12 -19 -11 -37 5 -14
12 -18 25 -14 41 3 13 3 23 0 23 -2 0 -7 -11 -11 -25z"/>
<path d="M2845 4680 c10 -11 20 -20 23 -20 3 0 -3 9 -13 20 -10 11 -20 20 -23
20 -3 0 3 -9 13 -20z"/>
<path d="M7110 4650 c0 -11 5 -20 10 -20 6 0 10 9 10 20 0 11 -4 20 -10 20 -5
0 -10 -9 -10 -20z"/>
<path d="M1392 4635 c16 -38 78 -145 83 -145 5 0 -75 152 -87 165 -5 6 -4 -3
4 -20z"/>
<path d="M5148 4648 c6 -6 18 -8 28 -6 14 3 12 5 -9 10 -19 3 -25 2 -19 -4z"/>
<path d="M2778 4635 c13 -9 26 -14 29 -11 8 8 3 12 -27 21 l-25 7 23 -17z"/>
<path d="M5978 4620 c-24 -23 -22 -30 7 -28 25 2 31 14 17 34 -5 8 -12 6 -24
-6z"/>
<path d="M3888 4623 c7 -3 16 -2 19 1 4 3 -2 6 -13 5 -11 0 -14 -3 -6 -6z"/>
<path d="M4068 4605 c2 -14 9 -25 14 -25 5 0 7 4 4 9 -4 5 0 11 6 13 8 3 5 9
-8 16 -19 10 -21 9 -16 -13z"/>
<path d="M3953 4605 c21 -8 51 -24 67 -35 17 -12 30 -19 30 -15 0 11 -95 65
-114 64 -14 0 -8 -5 17 -14z"/>
<path d="M6770 4565 c-6 -29 -21 -74 -33 -98 -21 -41 -21 -43 -4 -44 13 -1 17
3 13 13 -9 22 4 40 16 23 7 -10 7 -7 3 8 -6 22 11 100 27 118 11 12 10 35 -1
35 -5 0 -15 -25 -21 -55z"/>
<path d="M2765 4600 c27 -12 43 -12 25 0 -8 5 -22 9 -30 9 -10 0 -8 -3 5 -9z"/>
<path d="M5115 4594 c32 -8 70 -22 83 -30 14 -9 21 -11 17 -4 -12 20 -88 50
-125 49 -30 -1 -26 -3 25 -15z"/>
<path d="M7020 4595 c0 -8 5 -15 10 -15 6 0 10 7 10 15 0 8 -4 15 -10 15 -5 0
-10 -7 -10 -15z"/>
<path d="M3597 4586 c-3 -8 1 -17 9 -20 23 -9 24 -8 24 14 0 23 -25 27 -33 6z"/>
<path d="M4223 4578 c-26 -30 -40 -53 -25 -44 7 4 17 -5 24 -24 l13 -30 39 41
c21 23 30 37 20 31 -12 -7 -25 -7 -41 1 -26 12 -28 18 -11 35 7 7 10 12 7 12
-3 0 -15 -10 -26 -22z"/>
<path d="M5386 4551 c-9 -10 -16 -23 -16 -29 0 -7 -6 -12 -12 -12 -7 0 -4 -7
7 -16 11 -8 25 -29 32 -47 7 -20 12 -25 12 -13 1 10 10 34 21 52 18 28 19 36
8 53 -18 29 -34 32 -52 12z"/>
<path d="M3152 4520 c-7 -11 -20 -20 -30 -21 -22 -1 57 -27 83 -27 11 0 14 2
8 5 -16 6 -17 43 -2 43 5 0 7 5 4 10 -11 17 -50 11 -63 -10z"/>
<path d="M3512 4505 c0 -16 2 -22 5 -12 2 9 2 23 0 30 -3 6 -5 -1 -5 -18z"/>
<path d="M4702 4500 c0 -14 2 -19 5 -12 2 6 2 18 0 25 -3 6 -5 1 -5 -13z"/>
<path d="M5891 4492 c0 -18 -7 -35 -15 -38 -11 -4 -13 -12 -6 -29 6 -16 5 -25
-3 -29 -19 -7 55 -4 88 4 l30 8 -30 1 c-20 1 -26 4 -17 10 10 6 10 10 -3 21
-8 7 -15 21 -15 31 0 11 -4 19 -9 19 -5 0 -12 8 -14 18 -3 9 -5 2 -6 -16z"/>
<path d="M4093 4485 c8 -16 17 -41 18 -55 4 -24 3 -25 -53 -22 -49 3 -56 2
-55 -15 1 -10 7 -21 12 -25 6 -4 -17 -8 -50 -9 l-60 -2 45 -7 c25 -5 110 -10
190 -13 88 -3 113 -3 63 2 -45 3 -85 10 -89 14 -4 4 -3 7 2 7 8 0 10 38 5 91
0 9 -10 27 -21 40 l-21 24 14 -30z"/>
<path d="M4808 4492 c-3 -10 1 -27 8 -37 13 -17 14 -16 14 12 0 36 -15 52 -22
25z"/>
<path d="M6208 4503 c7 -3 16 -2 19 1 4 3 -2 6 -13 5 -11 0 -14 -3 -6 -6z"/>
<path d="M3347 4494 c7 -3 9 -12 6 -20 -3 -8 0 -14 6 -14 6 0 11 5 11 10 0 6
12 10 28 11 24 0 25 1 7 9 -11 5 -31 9 -45 9 -14 -1 -20 -3 -13 -5z"/>
<path d="M6112 4493 c-26 -5 -25 -21 2 -37 14 -9 21 -7 34 10 10 11 24 23 32
27 17 6 -34 6 -68 0z"/>
<path d="M5300 4479 c0 -5 -4 -7 -10 -4 -7 4 -7 -3 0 -20 22 -58 16 -65 -57
-66 -58 0 -64 -2 -40 -11 15 -5 27 -14 27 -19 0 -5 10 -9 23 -10 21 0 21 -1 2
-9 -33 -14 79 -12 268 6 176 16 220 24 129 24 -45 0 -51 2 -45 18 4 9 11 20
17 24 14 10 -42 8 -74 -2 -14 -4 -20 -8 -15 -9 6 -1 11 -10 11 -20 0 -22 -15
-26 -147 -37 l-76 -6 7 52 c7 58 3 100 -11 100 -5 0 -9 -5 -9 -11z"/>
<path d="M3340 4440 c14 -4 34 -8 45 -8 l20 -1 -20 9 c-11 5 -31 8 -45 8 l-25
0 25 -8z"/>
<path d="M4701 4418 l-1 -38 -72 -2 c-51 -1 -60 -3 -28 -5 25 -2 50 -10 56
-18 6 -8 19 -13 30 -11 20 3 29 35 21 84 -3 22 -4 20 -6 -10z"/>
<path d="M6125 4440 c-27 -7 -27 -8 -5 -8 14 0 39 4 55 8 27 7 27 8 5 8 -14 0
-38 -4 -55 -8z"/>
<path d="M3728 4431 c11 -6 10 -10 -4 -15 -16 -6 -16 -8 -4 -16 22 -14 -9 -13
-110 5 -95 17 -144 19 -95 4 44 -13 256 -41 263 -35 3 3 -2 6 -11 6 -15 0 -15
3 -5 20 9 14 25 20 53 21 l40 2 -45 8 c-62 11 -99 11 -82 0z"/>
<path d="M4221 4410 c-1 -36 -1 -36 37 -31 l37 6 -32 3 c-26 3 -33 8 -36 30
-3 22 -4 21 -6 -8z"/>
<path d="M6760 4430 c0 -5 7 -10 15 -10 8 0 15 5 15 10 0 6 -7 10 -15 10 -8 0
-15 -4 -15 -10z"/>
<path d="M5708 4423 c6 -2 18 -2 25 0 6 3 1 5 -13 5 -14 0 -19 -2 -12 -5z"/>
<path d="M5435 4400 c-28 -7 -28 -8 -5 -9 14 0 32 4 40 9 17 11 8 11 -35 0z"/>
<path d="M2868 4388 c5 -5 16 -8 23 -6 8 3 3 7 -10 11 -17 4 -21 3 -13 -5z"/>
<path d="M6730 4391 c0 -6 5 -13 10 -16 6 -3 10 1 10 9 0 9 -4 16 -10 16 -5 0
-10 -4 -10 -9z"/>
<path d="M4913 4369 c9 -6 15 -15 11 -20 -4 -6 13 -9 45 -8 33 2 51 7 51 15 0
7 8 15 18 17 9 3 -19 5 -63 6 -59 0 -75 -2 -62 -10z"/>
<path d="M5723 4373 c9 -2 25 -2 35 0 9 3 1 5 -18 5 -19 0 -27 -2 -17 -5z"/>
<path d="M6470 4330 c-35 -12 -43 -17 -21 -14 23 4 31 3 27 -5 -4 -6 0 -11 11
-11 14 -1 13 -4 -7 -15 -33 -19 -9 -19 35 -1 38 16 47 27 16 19 -20 -5 -23 10
-8 35 5 6 7 12 5 11 -2 0 -28 -9 -58 -19z"/>
<path d="M4348 4323 c23 -2 61 -2 85 0 23 2 4 4 -43 4 -47 0 -66 -2 -42 -4z"/>
<path d="M4891 4321 c-9 -6 51 -7 150 -4 90 3 166 7 168 9 9 9 -305 3 -318 -5z"/>
<path d="M2950 4305 c46 -18 61 -18 30 0 -14 8 -34 14 -45 14 -13 0 -8 -5 15
-14z"/>
<path d="M3098 4298 c3 -12 7 -17 10 -10 2 6 13 12 25 12 26 0 20 5 -15 14
-23 5 -25 4 -20 -16z"/>
<path d="M4688 4313 c23 -2 59 -2 80 0 20 2 1 4 -43 4 -44 0 -61 -2 -37 -4z"/>
<path d="M6368 4303 c-14 -4 -16 -8 -8 -24 8 -14 8 -20 -2 -23 -7 -2 -33 -9
-56 -16 -81 -22 -36 -20 59 2 52 12 85 24 75 26 -28 6 -50 29 -33 35 15 7 -11
7 -35 0z"/>
<path d="M1668 4223 c22 -27 57 -64 78 -83 21 -19 4 2 -36 48 -80 89 -106 111
-42 35z"/>
<path d="M3090 4261 c14 -4 39 -11 55 -14 l30 -6 -30 14 c-16 8 -41 14 -55 14
l-25 -1 25 -7z"/>
<path d="M6625 4174 c0 -45 3 -77 7 -70 9 14 9 92 -1 126 -4 15 -7 -9 -6 -56z"/>
<path d="M3454 4223 c1 -20 -36 -23 -129 -10 l-50 7 48 -14 c27 -8 71 -17 98
-21 27 -4 49 -12 49 -18 0 -8 3 -8 8 -2 12 17 60 45 79 46 21 1 -13 12 -68 23
-31 6 -37 4 -35 -11z"/>
<path d="M5970 4220 c-18 -6 -20 -8 -7 -9 10 -1 16 -5 12 -10 -3 -5 6 -22 20
-37 14 -15 25 -37 25 -50 0 -32 10 -54 25 -54 18 0 26 37 14 67 -16 43 -11 50
37 58 26 3 56 10 68 15 19 8 18 9 -9 9 -17 1 -45 -3 -64 -9 -25 -7 -39 -6 -53
4 -14 10 -16 15 -6 19 21 9 -35 6 -62 -3z"/>
<path d="M6650 4185 c0 -15 4 -24 10 -20 6 3 10 12 10 20 0 8 -4 17 -10 20 -6
4 -10 -5 -10 -20z"/>
<path d="M3461 4134 c0 -11 3 -14 6 -6 3 7 2 16 -1 19 -3 4 -6 -2 -5 -13z"/>
<path d="M4198 4133 c6 -2 18 -2 25 0 6 3 1 5 -13 5 -14 0 -19 -2 -12 -5z"/>
<path d="M4428 4123 c6 -2 18 -2 25 0 6 3 1 5 -13 5 -14 0 -19 -2 -12 -5z"/>
<path d="M3437 4070 c-8 -22 -13 -40 -11 -40 7 0 36 71 31 76 -2 2 -11 -14
-20 -36z"/>
<path d="M4090 4090 c0 -5 5 -10 10 -10 6 0 10 5 10 10 0 6 -4 10 -10 10 -5 0
-10 -4 -10 -10z"/>
<path d="M1830 4055 c13 -14 26 -25 28 -25 3 0 -5 11 -18 25 -13 14 -26 25
-28 25 -3 0 5 -11 18 -25z"/>
<path d="M6530 4035 c-28 -11 -30 -14 -12 -14 12 -1 22 -5 22 -11 0 -5 7 -6
17 -3 10 4 14 2 9 -5 -3 -6 -1 -14 5 -18 19 -11 31 19 13 33 -9 6 -13 16 -9
22 8 14 -1 13 -45 -4z"/>
<path d="M6710 4020 c0 -5 7 -10 15 -10 8 0 15 5 15 10 0 6 -7 10 -15 10 -8 0
-15 -4 -15 -10z"/>
<path d="M1910 3986 c0 -2 8 -10 18 -17 15 -13 16 -12 3 4 -13 16 -21 21 -21
13z"/>
<path d="M3195 3970 c11 -5 27 -9 35 -9 9 0 8 4 -5 9 -11 5 -27 9 -35 9 -9 0
-8 -4 5 -9z"/>
<path d="M6318 3973 c6 -2 18 -2 25 0 6 3 1 5 -13 5 -14 0 -19 -2 -12 -5z"/>
<path d="M6740 3921 c0 -15 16 -22 34 -15 25 9 19 24 -9 24 -14 0 -25 -4 -25
-9z"/>
<path d="M6730 3860 c0 -24 6 -25 26 -6 19 20 18 26 -6 26 -13 0 -20 -7 -20
-20z"/>
<path d="M6800 3860 c0 -11 5 -20 10 -20 6 0 10 9 10 20 0 11 -4 20 -10 20 -5
0 -10 -9 -10 -20z"/>
<path d="M7164 3714 c-18 -14 -18 -14 6 -3 31 14 36 19 24 19 -6 0 -19 -7 -30
-16z"/>
<path d="M2540 3610 c8 -5 20 -10 25 -10 6 0 3 5 -5 10 -8 5 -19 10 -25 10 -5
0 -3 -5 5 -10z"/>
<path d="M6768 3553 c7 -3 16 -2 19 1 4 3 -2 6 -13 5 -11 0 -14 -3 -6 -6z"/>
<path d="M2748 3543 c7 -3 16 -2 19 1 4 3 -2 6 -13 5 -11 0 -14 -3 -6 -6z"/>
<path d="M6598 3513 c7 -3 16 -2 19 1 4 3 -2 6 -13 5 -11 0 -14 -3 -6 -6z"/>
<path d="M3018 3493 c6 -2 18 -2 25 0 6 3 1 5 -13 5 -14 0 -19 -2 -12 -5z"/>
<path d="M6468 3493 c7 -3 16 -2 19 1 4 3 -2 6 -13 5 -11 0 -14 -3 -6 -6z"/>
<path d="M3963 3483 c444 -2 1170 -2 1615 0 444 1 80 2 -808 2 -888 0 -1252
-1 -807 -2z"/>
<path d="M9042 1733 c2 -9 14 -20 28 -23 24 -6 25 -10 28 -89 2 -71 5 -82 20
-79 14 3 18 18 22 88 5 82 6 85 30 85 15 0 26 7 28 18 3 15 -6 17 -78 17 -71
0 -81 -2 -78 -17z"/>
<path d="M9235 1738 c-3 -7 -4 -53 -3 -103 3 -76 6 -90 21 -93 14 -3 17 5 17
52 0 30 4 57 9 60 5 3 18 -10 30 -29 11 -19 25 -35 30 -35 5 0 18 16 30 36 28
47 43 35 39 -29 -2 -43 0 -52 15 -55 15 -3 17 7 17 102 0 94 -2 106 -17 106
-11 0 -30 -21 -48 -50 -16 -28 -32 -50 -36 -50 -3 0 -20 23 -37 50 -30 48 -58
64 -67 38z"/>
<path d="M455 1570 c-106 -22 -211 -81 -264 -149 -54 -68 -74 -127 -75 -216
-1 -68 3 -88 27 -137 51 -104 130 -152 399 -241 250 -84 295 -111 318 -198 39
-145 -124 -251 -339 -218 -139 21 -240 76 -354 193 l-67 69 -2 -162 c-1 -88
-2 -173 -2 -188 l-1 -28 65 3 c46 2 94 -4 163 -22 147 -39 262 -50 372 -37
156 18 256 62 336 148 69 73 92 143 87 263 -3 82 -8 102 -33 149 -58 106 -179
172 -467 256 -178 52 -239 99 -245 187 -8 105 65 160 220 166 145 6 249 -33
369 -139 36 -32 69 -59 72 -59 3 0 6 74 6 165 l0 165 -52 -6 c-38 -4 -77 0
-138 16 -93 24 -322 36 -395 20z"/>
<path d="M3742 1565 c-222 -50 -406 -219 -480 -442 -23 -69 -26 -94 -26 -223
0 -136 1 -150 30 -230 68 -192 208 -331 399 -396 113 -39 309 -46 437 -15 239
57 413 226 474 461 20 77 23 291 5 360 -61 231 -207 392 -422 465 -72 24 -103
28 -219 31 -92 3 -155 -1 -198 -11z m249 -155 c156 -29 269 -141 315 -310 21
-78 25 -288 6 -367 -32 -141 -126 -260 -240 -304 -79 -30 -192 -36 -268 -14
-145 42 -229 132 -280 300 -23 75 -26 283 -5 365 45 179 149 291 302 325 80
17 103 18 170 5z"/>
<path d="M1310 1541 c0 -6 5 -13 10 -16 6 -4 20 -25 33 -48 22 -42 22 -43 22
-557 0 -470 -2 -519 -18 -561 -10 -26 -26 -54 -37 -64 -11 -10 -17 -22 -14
-26 3 -5 93 -9 200 -9 162 0 194 2 194 14 0 8 -5 18 -11 22 -6 3 -22 30 -35
58 l-24 51 0 496 c0 529 3 572 50 614 11 10 20 22 20 27 0 4 -88 8 -195 8
-115 0 -195 -4 -195 -9z"/>
<path d="M1890 1545 c0 -3 11 -22 25 -43 13 -20 29 -57 34 -82 15 -63 14 -924
0 -1007 -6 -35 -22 -79 -35 -99 -13 -19 -24 -39 -24 -44 0 -11 303 -14 313 -4
4 4 -3 19 -14 35 -47 66 -49 90 -49 476 0 213 4 363 9 361 5 -1 85 -101 178
-221 92 -120 205 -267 251 -325 46 -59 116 -150 156 -202 103 -134 100 -131
187 -128 l74 3 5 580 c5 618 4 604 56 672 l25 33 -166 0 c-161 0 -165 -1 -155
-19 5 -11 14 -22 19 -26 5 -3 17 -27 25 -53 12 -37 17 -109 20 -332 5 -290 0
-394 -16 -384 -18 11 -579 721 -626 792 -14 21 -20 22 -153 22 -77 0 -139 -2
-139 -5z"/>
<path d="M4791 1501 c46 -74 51 -139 47 -645 -4 -479 -5 -486 -54 -553 -13
-17 -24 -34 -24 -37 0 -8 315 -8 323 0 3 4 -3 18 -13 32 -45 56 -51 109 -56
452 -4 310 -1 380 15 380 7 0 99 -154 286 -478 64 -111 96 -158 110 -160 16
-2 31 17 70 85 71 125 325 546 336 557 14 15 12 -722 -2 -765 -7 -19 -22 -48
-35 -65 -13 -17 -20 -34 -17 -38 8 -7 383 -8 383 -1 0 3 -13 29 -30 58 -42 75
-50 168 -50 612 1 424 9 510 54 570 14 18 26 36 26 39 0 3 -65 6 -144 6 -103
0 -146 -4 -154 -12 -6 -7 -41 -67 -80 -133 -190 -329 -251 -434 -276 -474 -27
-43 -29 -44 -43 -25 -13 17 -156 255 -323 537 l-63 107 -158 0 -158 0 30 -49z"/>
<path d="M6864 1493 c-14 -32 -30 -68 -34 -80 -20 -49 -268 -613 -361 -818
-55 -123 -117 -243 -139 -273 -22 -29 -40 -55 -40 -57 0 -7 326 -6 333 1 3 3
-1 24 -9 46 -19 55 -18 88 6 156 46 129 325 772 335 769 15 -5 275 -629 325
-780 21 -66 23 -119 5 -174 l-7 -23 179 0 c99 0 182 3 186 6 3 4 -5 21 -18 38
-30 39 -101 182 -148 296 -19 47 -106 254 -192 460 -87 206 -168 400 -180 430
l-23 55 -96 3 -96 3 -26 -58z"/>
<path d="M7813 1488 l32 -61 3 -485 c3 -516 0 -563 -44 -627 -13 -20 -24 -40
-24 -45 0 -6 65 -10 160 -10 88 0 160 3 160 6 0 3 -9 19 -20 34 -45 63 -48 89
-51 468 -3 234 0 363 6 364 12 3 328 -390 655 -814 l45 -58 82 0 83 0 0 542
c0 577 4 642 47 704 13 20 22 38 20 40 -2 3 -75 3 -162 2 l-157 -3 21 -27 c50
-63 54 -92 59 -441 3 -213 1 -332 -6 -339 -13 -13 -200 214 -581 705 l-84 107
-138 0 -138 0 32 -62z"/>
<path d="M6903 735 c-78 -34 -97 -146 -34 -208 28 -29 37 -32 91 -32 54 0 63
3 91 32 63 63 44 175 -36 209 -43 17 -71 17 -112 -1z"/>
</g>
</svg>
