<?xml version="1.0" encoding="UTF-8"?>
<svg version="1.1" xmlns="http://www.w3.org/2000/svg" width="608" height="888">
<path d="M0 0 C7.87513905 6.75011919 7.87513905 6.75011919 10.84755421 9.71612644 C11.5276199 10.39235099 12.2076856 11.06857555 12.90835935 11.76529175 C13.63210128 12.48990017 14.35584322 13.21450858 15.10151672 13.96107483 C15.88856764 14.74515463 16.67561857 15.52923443 17.48651952 16.33707422 C20.11098195 18.95289722 22.73188907 21.57225255 25.3527832 24.19165039 C27.23885297 26.07308861 29.12510849 27.95433905 31.01156616 29.83538818 C36.12806139 34.93834862 41.24082006 40.04504166 46.35275674 45.1525681 C49.54993379 48.34697454 52.74784419 51.54064613 55.9458828 54.73418999 C64.81537653 63.59149748 73.68392686 72.44974718 82.54902363 81.31145573 C83.39875488 82.16085763 83.39875488 82.16085763 84.26565243 83.02741918 C84.8334261 83.59497457 85.40119977 84.16252996 85.9861787 84.747284 C87.1365362 85.89719804 88.28689525 87.04711054 89.43725586 88.19702148 C90.0078629 88.76740709 90.57846993 89.3377927 91.16636809 89.92546272 C100.40406688 99.15921685 109.64849697 108.38620016 118.89586435 117.61027045 C128.40972247 127.10035505 137.91788647 136.59611399 147.42044705 146.09751123 C152.74791014 151.42406094 158.07772428 156.74820808 163.41384315 162.06608772 C167.95905179 166.59581414 172.49898144 171.13075208 177.03234831 175.67233098 C179.34071215 177.98457276 181.65214794 180.29358022 183.9686985 182.59762383 C195.72815833 194.29734228 206.93658789 205.88679063 215.25 220.375 C215.6627417 221.08994629 216.0754834 221.80489258 216.50073242 222.54150391 C232.44200982 250.81141085 236.72852904 285.28409044 228.64160156 316.70263672 C226.88141557 323.00528138 224.66277549 329.0253975 222 335 C221.70609375 335.66338379 221.4121875 336.32676758 221.109375 337.01025391 C215.14568771 350.21059775 207.18748868 361.40146183 197.875 372.4375 C197.40868164 372.99260254 196.94236328 373.54770508 196.46191406 374.11962891 C193.91719483 377.06080162 191.2643494 379.69351474 188.30300045 382.21654606 C184.05457866 385.90523927 180.06406256 389.80168658 176.0973053 393.78916931 C174.96717543 394.9190759 174.96717543 394.9190759 173.81421465 396.07180887 C171.31004012 398.57667355 168.80945033 401.08508553 166.30883789 403.59350586 C164.50657055 405.39769379 162.70407434 407.20165313 160.90136719 409.00540161 C157.03076472 412.87915748 153.16166265 416.75440217 149.29387093 420.63096428 C143.70121646 426.2362075 138.10529422 431.8381794 132.5084899 437.43927867 C123.42569153 446.52913035 114.34476554 455.62084993 105.26538086 464.71411133 C104.45163659 465.52909732 104.45163659 465.52909732 103.62145304 466.36054767 C99.76842057 470.21948373 95.91545452 474.07848611 92.0625 477.9375 C87.64905673 482.35787827 83.23557807 486.7782212 78.82202148 491.19848633 C78.00609198 492.01565802 78.00609198 492.01565802 77.17367906 492.84933823 C68.11813773 501.9185442 59.0606485 510.98580235 50.00175661 520.05166155 C44.41476212 525.64314427 38.82955729 531.2364035 33.24662285 536.83194012 C28.97914158 541.10880806 24.70915792 545.3831683 20.43822479 549.65658951 C18.68168119 551.41501489 16.92600695 553.17430917 15.17123985 554.93450737 C12.78770209 557.32519361 10.40116271 559.7128413 8.0138092 562.09971619 C7.31013547 562.80698489 6.60646173 563.51425359 5.88146454 564.24295467 C5.24694569 564.87609917 4.61242684 565.50924367 3.95868015 566.16157436 C3.40748589 566.71369042 2.85629163 567.26580647 2.28839451 567.83465332 C1 569 1 569 0 569 C0 381.23 0 193.46 0 0 Z " fill="#F7941D" transform="translate(367,0)"/>
<path d="M0 0 C0 187.44 0 374.88 0 568 C-3.35994787 566.32002606 -4.94665825 565.30445139 -7.48564816 562.77162075 C-8.16137401 562.10234379 -8.83709986 561.43306683 -9.53330225 560.74350876 C-10.26762729 560.00608651 -11.00195234 559.26866425 -11.75852966 558.50889587 C-12.54498416 557.72697249 -13.33143867 556.9450491 -14.14172512 556.13943106 C-16.78474889 553.5091013 -19.42053748 550.871639 -22.05639648 548.23413086 C-23.94680023 546.34970972 -25.83758279 544.46567551 -27.72880554 542.58207703 C-32.33986835 537.98763581 -36.94535191 533.38764097 -41.54866802 528.78543931 C-45.29656172 525.03849674 -49.04603246 521.29313962 -52.79661751 517.54889107 C-63.44720349 506.91593052 -74.09357311 496.27877378 -84.73460042 485.63624721 C-85.30840054 485.06236717 -85.88220067 484.48848714 -86.47338867 483.8972168 C-87.0478959 483.32262781 -87.62240312 482.74803883 -88.21431965 482.15603805 C-97.49600628 472.87354099 -106.78759376 463.60102641 -116.08380484 454.33307736 C-125.64586932 444.79985171 -135.2003421 435.25907397 -144.74713761 425.71055704 C-150.09997328 420.35706064 -155.45577203 415.00661256 -160.81976128 409.66428947 C-165.39403346 405.1083756 -169.96110624 400.54538606 -174.51947438 395.97355752 C-176.83912828 393.64744329 -179.16277086 391.32559931 -181.49333191 389.01040649 C-211.1783033 359.50836963 -232.20694228 326.84248386 -232.4375 283.75 C-232.0850386 247.60166437 -217.20523869 215.77410692 -192 190 C-190.79061093 188.94057838 -189.5742279 187.88911941 -188.35329342 186.84302425 C-184.09288186 183.13022648 -180.08163125 179.2159739 -176.0973053 175.21083069 C-175.34388538 174.45755963 -174.59046547 173.70428858 -173.81421465 172.92819113 C-171.31004012 170.42332645 -168.80945033 167.91491447 -166.30883789 165.40649414 C-164.50657055 163.60230621 -162.70407434 161.79834687 -160.90136719 159.99459839 C-157.03076472 156.12084252 -153.16166265 152.24559783 -149.29387093 148.36903572 C-143.70121646 142.7637925 -138.10529422 137.1618206 -132.5084899 131.56072133 C-123.42569153 122.47086965 -114.34476554 113.37915007 -105.26538086 104.28588867 C-104.72288468 103.74256468 -104.1803885 103.19924069 -103.62145304 102.63945233 C-99.76842057 98.78051627 -95.91545452 94.92151389 -92.0625 91.0625 C-87.64905673 86.64212173 -83.23557807 82.2217788 -78.82202148 77.80151367 C-78.27806848 77.25673255 -77.73411549 76.71195142 -77.17367906 76.15066177 C-68.11813773 67.0814558 -59.0606485 58.01419765 -50.00175661 48.94833845 C-44.41476212 43.35685573 -38.82955729 37.7635965 -33.24662285 32.16805988 C-28.97914158 27.89119194 -24.70915792 23.6168317 -20.43822479 19.34341049 C-18.68168119 17.58498511 -16.92600695 15.82569083 -15.17123985 14.06549263 C-12.78770209 11.67480639 -10.40116271 9.2871587 -8.0138092 6.90028381 C-7.31013547 6.19301511 -6.60646173 5.48574641 -5.88146454 4.75704533 C-5.24694569 4.12390083 -4.61242684 3.49075633 -3.95868015 2.83842564 C-3.13188876 2.01025155 -3.13188876 2.01025155 -2.28839451 1.16534668 C-1 0 -1 0 0 0 Z " fill="#126FA2" transform="translate(238,317)"/>
<path d="M0 0 C0.54897949 0.50128418 1.09795898 1.00256836 1.66357422 1.51904297 C22.80766245 21.02993266 37.46220194 48.02423117 39.18457031 77.11767578 C40.56166696 111.78781754 31.68889539 142.52611978 7.96484375 168.34765625 C-7.28640694 184.44515679 -25.69362268 194.99050896 -47 201 C-48.0621875 201.3196875 -49.124375 201.639375 -50.21875 201.96875 C-69.44691276 206.8207163 -92.08700717 205.82521965 -111 200 C-112.02988037 199.68651611 -112.02988037 199.68651611 -113.08056641 199.36669922 C-128.45542315 194.51090699 -141.924592 186.64998042 -154 176 C-154.63035156 175.50113281 -155.26070312 175.00226563 -155.91015625 174.48828125 C-161.45889132 170.07710007 -165.68774501 164.58825201 -170 159 C-170.60972656 158.21753906 -171.21945313 157.43507812 -171.84765625 156.62890625 C-189.98172 132.13346251 -197.10342021 100.501334 -192.78125 70.5 C-187.70171975 39.6445556 -171.58797142 11.4551364 -146 -7 C-101.96877131 -36.91346286 -40.20875701 -37.04182256 0 0 Z " fill="#F04D4E" transform="translate(199,29)"/>
</svg>
