<svg xmlns="http://www.w3.org/2000/svg" width="1636" height="507"><path fill="#010101" d="M196.625 16.688c1.48 0 2.96.01 4.49.01 38.85.42 72.42 13.32 102.89 37.3.9.68 1.81 1.36 2.74 2.07 7.62 5.89 14.26 12.8 21 19.66 3.63 3.69 7.22 7.31 11.18 10.64 3.24 2.77 6.07 5.76 8.91 8.94 6.73 7.38 13.77 14.42 20.84 21.47 1.39 1.38 2.77 2.77 4.16 4.15 3.61 3.61 7.22 7.21 10.83 10.81l11.04 11.01c6.46 6.45 12.91 12.9 19.38 19.34.96.96 1.92 1.92 2.92 2.91.84.84 1.69 1.68 2.57 2.55 2.55 2.57 4.98 5.23 7.41 7.92 9.15 9.94 18.73 19.47 28.26 29.05.5.51.5.51 3.05 3.07 5.33 5.36 10.67 10.71 16 16.06 4.39 4.4 8.77 8.81 13.15 13.23 5.32 5.37 10.65 10.72 15.99 16.07 2.02 2.03 4.03 4.06 6.04 6.09 21.74 21.98 43.35 37.06 75.21 37.34 22.87.03 42.06-6.46 58.71-22.7.86-.88 1.72-1.77 2.61-2.68.73-.74 1.47-1.48 2.23-2.24 19.75-20.9 25.85-48.18 25.15-76.05-1.22-27.15-13.58-49.67-32.97-68.17-18.1-15.88-39.12-19.53-62.41-18.54-27.2 2.97-50.57 17.34-67.72 38.32-3.96 5.11-7.74 10.27-11.28 15.68-4.4-2.2-6.87-4.63-10.32-8.12-1.09-1.1-2.18-2.19-3.3-3.32a197 197 0 0 1-6.74-7.42c-3.99-4.61-8.3-8.87-12.64-13.14-4.99-4.9-9.8-9.84-14.35-15.14-3.53-3.96-7.51-7.5-11.37-11.12-.76-.91-1.51-1.81-2.28-2.74 2.59-10.38 13.82-19.37 21-27 .65-.71 1.3-1.42 1.98-2.15 30.14-31.55 74.62-49.93 117.94-51.05 35.03-.43 67.63 6.8 96.08 28.2-.01-.81-.02-1.62-.02-2.46-.02-3.66-.03-7.32-.05-10.97-.01-1.28-.01-2.56-.02-3.88-.01-1.22-.01-2.43-.01-3.68-.01-1.13-.01-2.26-.02-3.42.12-2.59.12-2.59 1.12-3.59 2.6-.09 5.21-.11 7.82-.11h2.48c2.72 0 5.45.01 8.17.01 1.88.01 3.76.01 5.64.01 4.97 0 9.93.01 14.89.02 5.06.01 10.12.02 15.18.02 9.94.01 19.88.03 29.82.05.02 46.74.04 93.48.05 140.21v19.86c.01 17.79.01 35.59.02 53.38.01 18.24.02 36.48.02 54.72 0 11.27 0 22.53.01 33.8.01 7.71.01 15.43.01 23.14v13.38c.01 4.82.01 9.64.01 14.46v11.58c-.12 2.47-.12 2.47-1.12 3.47-2.61.1-5.22.12-7.83.12h-2.48c-2.72 0-5.45-.01-8.17-.02h-5.64l-14.89-.03c-5.06-.01-10.12-.01-15.18-.02-9.94-.01-19.88-.03-29.81-.05v-30l-9 5.5c-35.16 21.16-75.04 31.17-116.01 22.53-1.32-.34-2.64-.68-3.99-1.03-1.6-.4-3.2-.8-4.84-1.22-34.44-9.23-61.57-30.99-86.36-55.84l-2.6-2.6-8.4-8.4c-1.97-1.97-3.93-3.93-5.9-5.89-4.1-4.11-8.2-8.21-12.3-12.31-5.24-5.25-10.49-10.49-15.74-15.73l-12.15-12.15c-1.93-1.94-3.86-3.87-5.8-5.8-2.7-2.71-5.41-5.41-8.11-8.12-.79-.79-1.58-1.58-2.4-2.39-4.08-4.1-7.97-8.28-11.74-12.66-2.66-3.02-5.5-5.83-8.35-8.67-.31-.31-.31-.31-1.9-1.89-1.34-1.35-2.69-2.69-4.04-4.03-2.14-2.12-4.27-4.25-6.41-6.38-4.53-4.52-9.06-9.03-13.59-13.54-5.26-5.24-10.52-10.48-15.78-15.73-2.1-2.09-4.2-4.18-6.3-6.26l-3.87-3.87c-1.12-1.11-2.25-2.23-3.4-3.38-2.84-2.94-5.44-5.98-8.02-9.14-1.65-1.68-3.32-3.35-5-5l-5.22-5.31c-2.8-2.86-5.62-5.71-8.44-8.56-1.46-1.49-2.93-2.98-4.39-4.47-22.04-22.56-45.68-38.28-78.14-38.97-26.97.39-50.46 9.37-69.94 27.94-22.47 23.16-29.35 54.19-29.29 85.47l-.03 5.5c-.02 4.92-.03 9.84-.03 14.75 0 5.17-.03 10.33-.05 15.49-.04 9.75-.06 19.5-.08 29.24-.03 17.51-.09 35.01-.15 52.52-.03 6.14-.04 12.28-.05 18.42l-.03 11.41c0 1.77-.01 3.54-.01 5.3 0 2.41-.01 4.81-.02 7.21v4.08c-.13 2.98-.13 2.98-1.13 3.98-2.7.1-5.4.12-8.1.12h-2.58c-2.82 0-5.63-.01-8.45-.02h-5.85l-15.42-.03c-5.25-.01-10.49-.01-15.73-.02-10.29-.01-20.58-.03-30.87-.05-.08-24.26-.13-48.52-.16-72.79-.02-11.26-.04-22.53-.07-33.8q-.045-14.745-.06-29.49c0-5.2-.01-10.39-.03-15.59-.17-41.62-.17-41.62 3.32-59.33.11-.58.11-.58.68-3.55a124 124 0 0 1 1.88-7.82c.25-.94.5-1.87.76-2.84 8.63-30.59 25.37-62.94 47.68-85.79 1.08-1.28 2.17-2.58 3.24-3.87 32.59-37.04 81.78-55.63 130.38-55.44M807 19c12.97-.21 25.94-.37 38.91-.47q9.03-.06 18.06-.21c5.81-.1 11.62-.15 17.43-.17 2.22-.02 4.44-.05 6.66-.1 3.1-.07 6.2-.08 9.31-.07.46-.02.46-.02 2.79-.1 2.56.04 2.56.04 6.84 1.12 2.49 4.26 2.49 4.26 4 9 .34.89.68 1.77 1.03 2.69.13.37.13.37.76 2.23.3.87.59 1.73.9 2.62.31.92.62 1.84.93 2.78.71 2.06 1.41 4.11 2.12 6.16.36 1.08.73 2.16 1.11 3.28 6.88 20.16 14 40.23 21.34 60.24 7.66 20.92 14.99 41.93 22.11 63.04 3.71 11 7.56 21.95 11.39 32.91 3.25 9.26 6.49 18.53 9.66 27.82.51 1.5 1.03 3.01 1.56 4.55l2.85 8.4c.21.61.21.61 1.26 3.69l1.09 3.22C990 254 990 254 991 255c.35-.94.69-1.88 1.05-2.85 8.17-22.26 16.42-44.49 24.77-66.68 4.05-10.79 8.1-21.58 12.14-32.37 2.25-6 4.5-12 6.75-18.01.9-2.38 1.79-4.76 2.68-7.14 5.06-13.49 5.06-13.49 6.25-16.67.78-2.07 1.56-4.14 2.34-6.22 1.87-4.98 3.73-9.97 5.6-14.95 3.22-8.57 6.43-17.14 9.64-25.71 1.37-3.66 2.75-7.33 4.12-10.99.64-1.7 1.27-3.39 1.9-5.09 1.92-5.11 3.84-10.21 5.76-15.32.49-1.31.98-2.61 1.49-3.96.23-.59.23-.59 1.37-3.59.39-1.04.78-2.07 1.18-3.13C1079 20 1079 20 1080 19c2.98-.1 5.94-.13 8.93-.11h2.83c3.12 0 6.23 0 9.34.01 2.15 0 4.3.01 6.45.01 5.67 0 11.35.01 17.02.02 5.79.01 11.57.02 17.35.02 11.36.01 22.72.03 34.08.05-.88 4.84-2.53 9.23-4.33 13.79-.35.88-.69 1.76-1.04 2.66-1.15 2.92-2.29 5.83-3.44 8.74-.81 2.05-1.62 4.1-2.42 6.16-6.82 17.32-13.73 34.6-20.65 51.88-4.6 11.45-9.17 22.91-13.68 34.39-.51 1.29-1.01 2.57-1.53 3.9-1.06 2.69-2.12 5.39-3.18 8.08-3.42 8.7-6.85 17.39-10.29 26.09-.39.97-.77 1.95-1.17 2.95-9.04 22.84-18.17 45.64-27.31 68.44-5.26 13.12-10.5 26.25-15.65 39.4-4.74 12.12-9.59 24.19-14.48 36.25-6.3 15.53-12.58 31.06-18.66 46.68-3.95 10.11-8.03 20.16-12.11 30.21-9.22 22.72-18.22 45.52-27.06 68.38-.3.79-.61 1.57-.92 2.38l-2.7 6.99c-.29.73-.29.73-1.71 4.4-1.04 2.71-2.09 5.41-3.13 8.12-.46 1.18-.91 2.36-1.38 3.57-.4 1.03-.79 2.06-1.2 3.12C987 498 987 498 986 500c-2.87.2-5.76.26-8.63.26-.91 0-1.82.01-2.75.01-3.01.01-6.02 0-9.03 0h-6.24c-4.37 0-8.74 0-13.1-.01-5.62-.01-11.23 0-16.84.01-4.3.01-8.6 0-12.9 0h-6.21c-2.89.01-5.78 0-8.67-.01-.82 0-.82 0-4.99-.01-1.2-.08-2.4-.16-3.64-.25-1-2-1-2-.33-4.17.38-.92.76-1.85 1.15-2.79.45-1.09.89-2.17 1.34-3.29.51-1.22 1.01-2.43 1.53-3.69l3.33-8.19c.3-.75.61-1.51.92-2.28 3.99-9.84 7.83-19.74 11.7-29.63 7.12-18.25 14.31-36.45 21.73-54.58l1.32-3.24c.89-2.15 1.83-4.28 2.8-6.39 3.2-7.12 4.24-10.93 1.54-18.45-1.3-3.44-2.69-6.84-4.09-10.24-1.11-2.72-2.21-5.45-3.32-8.17-.59-1.45-1.18-2.9-1.79-4.39-3.13-7.7-6.24-15.41-9.33-23.12-.16-.41-.16-.41-.99-2.48-8.6-21.44-16.84-43.03-25.1-64.6-6.73-17.58-13.5-35.14-20.35-52.68l-2.1-5.37c-3.31-8.49-6.63-16.97-9.98-25.45-12.44-31.53-24.49-63.21-36.53-94.9-14.05-36.95-14.05-36.95-18.58-47.53C807 22 807 22 807 19m539.188-9.312c.45 0 .45 0 2.72.01 27.91.1 54.82 3.72 80.09 16.3 1.02.5 2.03.99 3.07 1.5 25.6 13.15 41.72 37.14 50.45 63.89 3.54 11.36 5.48 22.68 5.48 34.61-1 1-1 1-4.61 1.12h-7.67c-2.98 0-5.96-.01-8.94-.02h-6.18l-16.31-.03c-5.55-.01-11.09-.01-16.63-.02-10.89-.01-21.77-.03-32.66-.05-.19-1.1-.39-2.21-.6-3.34-.26-1.45-.52-2.89-.79-4.38-.26-1.44-.52-2.87-.79-4.35-.88-4.23-2.15-7.75-4.19-11.55-.57-1.09-1.13-2.17-1.71-3.29-6.31-10.17-14.64-14.89-25.92-18.09-16.07-3.69-36.08-2.17-50.56 5.75-9.24 6.26-13.25 13.32-15.44 24.25-1.19 9.1.73 16.99 5.74 24.67 8.42 10.5 20.6 14 33.08 17.58l3.15.91c7.81 2.24 15.64 4.38 23.49 6.49 1.14.31 2.28.61 3.46.93 4.64 1.24 9.29 2.49 13.94 3.72 12.85 3.41 25.58 7.02 38.16 11.34 1.04.35 2.08.71 3.15 1.07 15.69 5.52 30.29 13.3 42.83 24.29.4.35.4.35 2.44 2.1 18.26 16.93 25.59 40.43 26.69 64.65.57 26.26-6.51 51.71-23.13 72.25-.58.73-1.17 1.46-1.77 2.21-22.6 26.84-58.99 40.73-93.23 43.79-.52.06-.52.06-3.18.33-44.82 4.04-94.55-1.33-130.59-30.58-2.48-2.19-4.86-4.44-7.23-6.75-.76-.69-1.51-1.39-2.29-2.11-20.6-19.45-31.31-49.1-33.71-76.89-.07-3-.09-6 0-9 2.03-2.02 6.33-1.2 8.96-1.24.84-.01 1.67-.02 2.53-.04 8.72-.12 17.44-.18 26.17-.23 4.14-.03 8.28-.08 12.43-.15 4.99-.08 9.98-.12 14.98-.14 1.91-.01 3.81-.03 5.72-.07 2.67-.06 5.33-.06 7.99-.05.76-.01.76-.01 4.6-.05 1.2.32 2.39.64 3.62.97 1.96 3.87 1.96 3.87 3 8 .31.99.61 1.97.92 2.99.14.45.14.45.83 2.76 4.73 14.16 12.99 25.23 26.44 31.98 18.65 8.46 40.06 10.38 59.81 4.27 11.86-4.68 18.82-10.1 24-22 2.33-9.15 2.02-19.46-2-28-17.59-26.68-54.81-30.34-83.55-37.36-26.76-6.56-53.79-13.81-75.45-31.64-.72-.57-1.45-1.14-2.2-1.74-18.36-15.11-27.78-37.21-30.24-60.42-2.13-27.11 4.64-54.69 22.6-75.72.61-.7 1.22-1.4 1.84-2.12.44-.56.44-.56 2.63-3.43 29.48-31.12 73.39-40.06 114.56-39.88"/><path fill="#010101" d="M283 243c3.86 1.93 6.12 4.02 9.09 7.08 1.86 1.87 3.78 3.58 5.79 5.3 3.74 3.22 7.21 6.67 10.65 10.21 2.04 1.99 4.1 3.84 6.25 5.69 5 4.34 9.59 9.04 14.22 13.76 3.89 3.93 7.88 7.64 12.06 11.25 3.12 2.76 6.02 5.74 8.94 8.71 5.5 5.56 11.13 10.82 17.18 15.79 2.42 2.93 2.31 4.66 2.29 8.43 0 1.26.01 2.52.01 3.81-.01.68-.01.68-.05 4.11-.01.69-.01.69-.01 4.21-.01 2.94-.03 5.88-.06 8.81-.05 4.52-.06 9.04-.08 13.55-.01 2.85-.03 5.7-.04 8.55-.01 1.36-.02 2.72-.02 4.12-.02 1.25-.03 2.5-.04 3.79l-.03 3.34C369 386 369 386 368 387c-2.64.09-5.28.12-7.92.11h-2.55c-2.74 0-5.48 0-8.22-.01-1.69 0-3.38 0-5.06-.01q-9.405 0-18.81-.03L283 387zm1324.691 49.383c11.65 8.16 18.56 19.26 22.56 32.87 2.39 15.11-.18 28.69-8.25 41.75-8.73 11.89-21.36 19.71-36 22-16.57.94-30.51-1.69-43.76-12.19-9.95-9.26-16.53-20.85-17.61-34.48-.23-16.75 3.34-29.21 14.37-42.33 18.55-18.52 46.72-21.75 68.69-7.62"/></svg>